<svg width="278" height="181" viewBox="0 0 278 181" fill="none" xmlns="http://www.w3.org/2000/svg">
<path d="M131.219 162.407L82.617 168.936" stroke="black" stroke-width="1.81048"/>
<path d="M62.665 47.7001L254.164 20.4844L254.533 141.009L62.665 168.874V47.7001Z" fill="#8355FB"/>
<path d="M72.8237 67.5354C72.8237 63.5982 75.6692 60.2293 79.5725 59.5451L162.78 47.7107C163.202 47.6507 163.636 47.6442 164.051 47.7441C168.131 48.726 168.131 52.6051 168.131 57.4129L170.026 134.737C170.026 138.687 167.163 142.063 163.245 142.733L82.379 156.571C77.387 157.425 72.824 153.607 72.824 148.575L72.8237 67.5354Z" fill="white"/>
<mask id="mask0_5372_9261" style="mask-type:alpha" maskUnits="userSpaceOnUse" x="72" y="48" width="99" height="109">
<path d="M72.8252 67.5355C72.8252 63.5984 75.6707 60.2294 79.5739 59.5452L158.891 48.5254C163.893 47.6486 168.479 51.4706 168.479 56.5157L170.027 134.805C170.027 138.755 167.164 142.131 163.246 142.801L82.3802 156.639C77.3882 157.493 72.8252 153.675 72.8252 148.643V67.5355Z" fill="white"/>
</mask>
<g mask="url(#mask0_5372_9261)">
<path d="M78.7779 133.165C78.7779 133.165 84.308 91.4901 90.521 92.0719C94.5874 92.4527 95.0905 125.657 103.649 124.66C112.208 123.663 113.142 93.72 117.28 91.944C121.418 90.168 123.564 106.437 126.276 109.018C136.955 119.18 132.434 54.6121 140.425 63.588C145.51 69.2992 145.431 136.188 152.564 129.488C155.263 126.953 155.069 97.2276 160.411 98.6166C163.378 99.3881 166.876 136.727 172.06 126.949C173.77 123.724 174.566 89.4715 174.834 81.9345" stroke="#8EFD01" stroke-width="1.81048"/>
</g>
<ellipse cx="1.8135" cy="2.1762" rx="1.8135" ry="2.1762" transform="matrix(0.803565 0.595217 -0.595219 0.803564 138.397 55.3147)" fill="#8355FB"/>
<ellipse cx="1.8135" cy="2.1762" rx="1.8135" ry="2.1762" transform="matrix(0.803565 0.595217 -0.595219 0.803564 90.4199 83.3772)" fill="#8355FB"/>
<path d="M172.204 51.0585C172.204 47.272 174.865 44.0319 178.515 43.3739L239.338 33.7563C239.788 33.6852 240.252 33.6729 240.692 33.7914C244.427 34.7981 244.447 38.783 244.447 43.3739L245.469 125.548C245.469 129.347 242.792 132.594 239.128 133.238L182.162 140.167C177.494 140.989 173.227 137.316 173.227 132.477L172.204 51.0585Z" fill="white"/>
<path d="M178.732 125.375C178.732 124.988 179.128 124.658 179.67 124.591L188.334 123.649C188.646 123.615 189.001 123.556 189.242 123.757C189.46 123.938 189.462 124.248 189.462 124.591L189.613 132.976C189.613 133.363 189.216 133.695 188.672 133.761L180.211 134.468C179.518 134.551 178.884 134.177 178.884 133.683L178.732 125.375Z" fill="#8355FB"/>
<path d="M178.732 52.1836C178.732 50.0457 180.919 48.2162 183.919 47.8447L234.758 40.5673C235.118 40.5158 235.486 40.5026 235.844 40.5682C238.924 41.1333 238.941 43.3856 238.941 45.9807V92.4062C238.941 94.5509 236.74 96.3841 233.729 96.7482L186.915 102.497C183.079 102.961 179.573 100.887 179.573 98.1546L178.732 52.1836Z" fill="#8355FB"/>
<path d="M203.396 122.473C203.396 122.087 203.791 121.756 204.333 121.689L212.997 120.748C213.309 120.714 213.664 120.654 213.905 120.855C214.123 121.037 214.125 121.346 214.125 121.689L214.277 130.074C214.277 130.462 213.879 130.793 213.335 130.859L204.874 131.566C204.181 131.65 203.547 131.275 203.547 130.781L203.396 122.473Z" fill="#8355FB"/>
<path d="M191.065 123.924C191.065 123.538 191.46 123.207 192.002 123.14L200.666 122.198C200.979 122.165 201.333 122.105 201.574 122.306C201.793 122.487 201.794 122.797 201.794 123.14L201.946 131.525C201.946 131.913 201.548 132.244 201.004 132.31L192.544 133.017C191.851 133.1 191.217 132.726 191.217 132.232L191.065 123.924Z" fill="#8355FB"/>
<path d="M215.728 121.023C215.728 120.636 216.123 120.306 216.665 120.238L225.33 119.297C225.642 119.263 225.996 119.203 226.237 119.404C226.456 119.586 226.457 119.896 226.457 120.238L226.609 128.624C226.609 129.011 226.211 129.342 225.667 129.408L217.207 130.115C216.514 130.199 215.88 129.824 215.88 129.331L215.728 121.023Z" fill="#8355FB"/>
<path d="M228.06 119.572C228.06 119.185 228.455 118.855 228.997 118.788L237.662 117.846C237.974 117.812 238.328 117.752 238.57 117.953C238.788 118.135 238.789 118.445 238.789 118.788L238.941 127.173C238.941 127.56 238.543 127.892 237.999 127.957L229.539 128.664C228.846 128.748 228.212 128.373 228.212 127.88L228.06 119.572Z" fill="#8355FB"/>
<path d="M260.367 29.2905L277.042 25.2074L260.367 21.27L262.235 8.29138L249.154 13.8328L247.141 1.00001L241.679 16.0202" stroke="#8EFD01" stroke-width="1.81048"/>
<path d="M263.275 100.568C264.528 99.2702 265.974 98.2219 267.404 97.5736L266.628 103.807L263.275 100.568Z" fill="#70DF1D"/>
<ellipse cx="5.64607" cy="5.64606" rx="5.64607" ry="5.64606" transform="matrix(0.719374 0.694623 -0.694625 0.719372 260.843 103)" fill="black"/>
<path d="M99.7734 30.5202C99.7734 30.5202 87.6861 27.1217 82.8858 31.6933C78.4751 35.8939 80.0054 47.0246 80.0054 47.0246C80.0054 47.0246 67.9505 48.2877 66.9414 53.9864C66.0208 59.1853 74.8562 64.896 74.8562 64.896" stroke="black" stroke-width="1.81048"/>
<path d="M59.7681 164.221V172.2L67.0221 171.06" stroke="#8355FB" stroke-width="1.81048"/>
<ellipse cx="18.4977" cy="19.9484" rx="18.4977" ry="19.9484" transform="matrix(0.965754 0.259459 -0.25946 0.965754 196.149 48.3931)" fill="white"/>
<path d="M195.419 72.4576L208.113 79.7116L221.896 63.3901" stroke="#8EFD01" stroke-width="5.07779"/>
<path d="M254.682 72.0888C254.682 72.0888 262.891 65.8968 256.064 63.0659C253.183 61.8709 251.405 61.6825 251.835 63.8051C252.25 65.857 256.597 65.4111 257.178 65.2319C258.544 64.8107 263.844 60.9856 257.646 56.2017C255.202 54.3147 253.822 55.1453 254.221 56.9282C254.221 56.9282 255.228 60.2344 259.49 61.5921C262.769 62.6364 265.395 62.9997 267.21 60.5329C269.568 57.3292 265.862 51.3517 263.144 52.7252C262.008 53.2993 262.896 54.4649 263.781 55.3496C267.089 58.6576 275.692 54.693 275.692 54.693" stroke="black" stroke-width="1.81048"/>
<path d="M57.6132 155.829L5.22669 164.033" stroke="#5A12BF" stroke-width="2"/>
<path d="M55.0028 145.206L2.27788 139.572" stroke="#5A12BF" stroke-width="2"/>
<path d="M57.9212 135.014L11.0004 110.314" stroke="#5A12BF" stroke-width="2"/>
<circle cx="44" cy="111.574" r="5" fill="#8EFD01"/>
<circle cx="105.5" cy="27.5" r="1.5" fill="#5A12BF"/>
</svg>
