<svg width="180" height="120" viewBox="0 0 180 120" fill="none" xmlns="http://www.w3.org/2000/svg">
<g clip-path="url(#clip0_46647_21275)">
<path d="M40.6553 23.7429L47.7682 40.7304L62.6351 30.4154L59.7356 48.6819L77.6363 48.3143L65.6452 62.0603L80.8964 71.7571L63.6207 76.6185L71.3806 93.2999L54.3048 87.7335L52.1092 106.104L40.6553 91.8771L29.2015 106.104L27.0059 87.7335L9.9303 93.2999L17.69 76.6185L0.414062 71.7571L15.6655 62.0603L3.67417 48.3143L21.5751 48.6819L18.6755 30.4154L33.5425 40.7304L40.6553 23.7429Z" fill="#8EFD01"/>
<path d="M180.001 0H40.9668V120H180.001V0Z" fill="#8B52ED"/>
<path d="M180.001 0H40.9668V23.7433H180.001V0Z" fill="#3A0078"/>
<path d="M169.443 8.34253H142.769C140.708 8.34253 139.037 10.0663 139.037 12.1928C139.037 14.3192 140.708 16.043 142.769 16.043H169.443C171.504 16.043 173.175 14.3192 173.175 12.1928C173.175 10.0663 171.504 8.34253 169.443 8.34253Z" fill="white"/>
<path d="M145.601 14.9433C147.051 14.9433 148.227 13.794 148.227 12.3764C148.227 10.9588 147.051 9.80957 145.601 9.80957C144.15 9.80957 142.975 10.9588 142.975 12.3764C142.975 13.794 144.15 14.9433 145.601 14.9433Z" fill="black"/>
<path d="M156.105 14.7597C157.555 14.7597 158.73 13.6104 158.73 12.1928C158.73 10.7752 157.555 9.62598 156.105 9.62598C154.654 9.62598 153.479 10.7752 153.479 12.1928C153.479 13.6104 154.654 14.7597 156.105 14.7597Z" fill="#8B52ED"/>
<path d="M166.606 14.7597C168.057 14.7597 169.232 13.6104 169.232 12.1928C169.232 10.7752 168.057 9.62598 166.606 9.62598C165.156 9.62598 163.98 10.7752 163.98 12.1928C163.98 13.6104 165.156 14.7597 166.606 14.7597Z" fill="#5A12BF"/>
<path d="M54.4371 43.2341C57.017 43.2341 59.1085 41.0774 59.1085 38.4171C59.1085 35.7567 57.017 33.6001 54.4371 33.6001C51.8571 33.6001 49.7656 35.7567 49.7656 38.4171C49.7656 41.0774 51.8571 43.2341 54.4371 43.2341Z" fill="white"/>
<path d="M73.0367 43.2341C75.6167 43.2341 77.7081 41.0774 77.7081 38.4171C77.7081 35.7567 75.6167 33.6001 73.0367 33.6001C70.4567 33.6001 68.3652 35.7567 68.3652 38.4171C68.3652 41.0774 70.4567 43.2341 73.0367 43.2341Z" fill="white"/>
<path d="M91.6363 43.2341C94.2163 43.2341 96.3077 41.0774 96.3077 38.4171C96.3077 35.7567 94.2163 33.6001 91.6363 33.6001C89.0563 33.6001 86.9648 35.7567 86.9648 38.4171C86.9648 41.0774 89.0563 43.2341 91.6363 43.2341Z" fill="#5A12BF"/>
<path d="M110.234 43.2341C112.814 43.2341 114.905 41.0774 114.905 38.4171C114.905 35.7567 112.814 33.6001 110.234 33.6001C107.654 33.6001 105.562 35.7567 105.562 38.4171C105.562 41.0774 107.654 43.2341 110.234 43.2341Z" fill="white"/>
<path d="M128.832 43.2341C131.412 43.2341 133.503 41.0774 133.503 38.4171C133.503 35.7567 131.412 33.6001 128.832 33.6001C126.252 33.6001 124.16 35.7567 124.16 38.4171C124.16 41.0774 126.252 43.2341 128.832 43.2341Z" fill="white"/>
<path d="M147.431 43.2341C150.011 43.2341 152.103 41.0774 152.103 38.4171C152.103 35.7567 150.011 33.6001 147.431 33.6001C144.851 33.6001 142.76 35.7567 142.76 38.4171C142.76 41.0774 144.851 43.2341 147.431 43.2341Z" fill="white"/>
<path d="M166.029 43.2341C168.609 43.2341 170.7 41.0774 170.7 38.4171C170.7 35.7567 168.609 33.6001 166.029 33.6001C163.449 33.6001 161.357 35.7567 161.357 38.4171C161.357 41.0774 163.449 43.2341 166.029 43.2341Z" fill="white"/>
<path d="M54.4371 60.0253C57.017 60.0253 59.1085 57.8687 59.1085 55.2083C59.1085 52.548 57.017 50.3914 54.4371 50.3914C51.8571 50.3914 49.7656 52.548 49.7656 55.2083C49.7656 57.8687 51.8571 60.0253 54.4371 60.0253Z" fill="#5A12BF"/>
<path d="M73.0367 60.0253C75.6167 60.0253 77.7081 57.8687 77.7081 55.2083C77.7081 52.548 75.6167 50.3914 73.0367 50.3914C70.4567 50.3914 68.3652 52.548 68.3652 55.2083C68.3652 57.8687 70.4567 60.0253 73.0367 60.0253Z" fill="white"/>
<path d="M91.6363 60.0253C94.2163 60.0253 96.3077 57.8687 96.3077 55.2083C96.3077 52.548 94.2163 50.3914 91.6363 50.3914C89.0563 50.3914 86.9648 52.548 86.9648 55.2083C86.9648 57.8687 89.0563 60.0253 91.6363 60.0253Z" fill="white"/>
<path d="M110.234 60.0253C112.814 60.0253 114.905 57.8687 114.905 55.2083C114.905 52.548 112.814 50.3914 110.234 50.3914C107.654 50.3914 105.562 52.548 105.562 55.2083C105.562 57.8687 107.654 60.0253 110.234 60.0253Z" fill="white"/>
<path d="M128.832 60.0253C131.412 60.0253 133.503 57.8687 133.503 55.2083C133.503 52.548 131.412 50.3914 128.832 50.3914C126.252 50.3914 124.16 52.548 124.16 55.2083C124.16 57.8687 126.252 60.0253 128.832 60.0253Z" fill="#5A12BF"/>
<path d="M147.431 60.0253C150.011 60.0253 152.103 57.8687 152.103 55.2083C152.103 52.548 150.011 50.3914 147.431 50.3914C144.851 50.3914 142.76 52.548 142.76 55.2083C142.76 57.8687 144.851 60.0253 147.431 60.0253Z" fill="white"/>
<path d="M166.029 60.0253C168.609 60.0253 170.7 57.8687 170.7 55.2083C170.7 52.548 168.609 50.3914 166.029 50.3914C163.449 50.3914 161.357 52.548 161.357 55.2083C161.357 57.8687 163.449 60.0253 166.029 60.0253Z" fill="white"/>
<path d="M54.4371 76.8171C57.017 76.8171 59.1085 74.6604 59.1085 72.0001C59.1085 69.3397 57.017 67.1831 54.4371 67.1831C51.8571 67.1831 49.7656 69.3397 49.7656 72.0001C49.7656 74.6604 51.8571 76.8171 54.4371 76.8171Z" fill="white"/>
<path d="M73.0367 76.8171C75.6167 76.8171 77.7081 74.6604 77.7081 72.0001C77.7081 69.3397 75.6167 67.1831 73.0367 67.1831C70.4567 67.1831 68.3652 69.3397 68.3652 72.0001C68.3652 74.6604 70.4567 76.8171 73.0367 76.8171Z" fill="white"/>
<path d="M91.6363 76.8171C94.2163 76.8171 96.3077 74.6604 96.3077 72.0001C96.3077 69.3397 94.2163 67.1831 91.6363 67.1831C89.0563 67.1831 86.9648 69.3397 86.9648 72.0001C86.9648 74.6604 89.0563 76.8171 91.6363 76.8171Z" fill="white"/>
<path d="M110.234 76.8171C112.814 76.8171 114.905 74.6604 114.905 72.0001C114.905 69.3397 112.814 67.1831 110.234 67.1831C107.654 67.1831 105.562 69.3397 105.562 72.0001C105.562 74.6604 107.654 76.8171 110.234 76.8171Z" fill="#5A12BF"/>
<path d="M128.832 76.8171C131.412 76.8171 133.503 74.6604 133.503 72.0001C133.503 69.3397 131.412 67.1831 128.832 67.1831C126.252 67.1831 124.16 69.3397 124.16 72.0001C124.16 74.6604 126.252 76.8171 128.832 76.8171Z" fill="white"/>
<path d="M147.431 76.8171C150.011 76.8171 152.103 74.6604 152.103 72.0001C152.103 69.3397 150.011 67.1831 147.431 67.1831C144.851 67.1831 142.76 69.3397 142.76 72.0001C142.76 74.6604 144.851 76.8171 147.431 76.8171Z" fill="white"/>
<path d="M166.029 76.8171C168.609 76.8171 170.7 74.6604 170.7 72.0001C170.7 69.3397 168.609 67.1831 166.029 67.1831C163.449 67.1831 161.357 69.3397 161.357 72.0001C161.357 74.6604 163.449 76.8171 166.029 76.8171Z" fill="white"/>
<path d="M54.4371 93.6083C57.017 93.6083 59.1085 91.4517 59.1085 88.7914C59.1085 86.131 57.017 83.9744 54.4371 83.9744C51.8571 83.9744 49.7656 86.131 49.7656 88.7914C49.7656 91.4517 51.8571 93.6083 54.4371 93.6083Z" fill="white"/>
<path d="M73.0367 93.6083C75.6167 93.6083 77.7081 91.4517 77.7081 88.7914C77.7081 86.131 75.6167 83.9744 73.0367 83.9744C70.4567 83.9744 68.3652 86.131 68.3652 88.7914C68.3652 91.4517 70.4567 93.6083 73.0367 93.6083Z" fill="#5A12BF"/>
<path d="M91.6363 93.6083C94.2163 93.6083 96.3077 91.4517 96.3077 88.7914C96.3077 86.131 94.2163 83.9744 91.6363 83.9744C89.0563 83.9744 86.9648 86.131 86.9648 88.7914C86.9648 91.4517 89.0563 93.6083 91.6363 93.6083Z" fill="white"/>
<path d="M110.234 93.6083C112.814 93.6083 114.905 91.4517 114.905 88.7914C114.905 86.131 112.814 83.9744 110.234 83.9744C107.654 83.9744 105.562 86.131 105.562 88.7914C105.562 91.4517 107.654 93.6083 110.234 93.6083Z" fill="white"/>
<path d="M128.832 93.6083C131.412 93.6083 133.503 91.4517 133.503 88.7914C133.503 86.131 131.412 83.9744 128.832 83.9744C126.252 83.9744 124.16 86.131 124.16 88.7914C124.16 91.4517 126.252 93.6083 128.832 93.6083Z" fill="white"/>
<path d="M147.431 93.6083C150.011 93.6083 152.103 91.4517 152.103 88.7914C152.103 86.131 150.011 83.9744 147.431 83.9744C144.851 83.9744 142.76 86.131 142.76 88.7914C142.76 91.4517 144.851 93.6083 147.431 93.6083Z" fill="#5A12BF"/>
<path d="M166.029 93.6083C168.609 93.6083 170.7 91.4517 170.7 88.7914C170.7 86.131 168.609 83.9744 166.029 83.9744C163.449 83.9744 161.357 86.131 161.357 88.7914C161.357 91.4517 163.449 93.6083 166.029 93.6083Z" fill="white"/>
<path d="M54.4371 110.4C57.017 110.4 59.1085 108.243 59.1085 105.583C59.1085 102.923 57.017 100.766 54.4371 100.766C51.8571 100.766 49.7656 102.923 49.7656 105.583C49.7656 108.243 51.8571 110.4 54.4371 110.4Z" fill="white"/>
<path d="M73.0367 110.4C75.6167 110.4 77.7081 108.243 77.7081 105.583C77.7081 102.923 75.6167 100.766 73.0367 100.766C70.4567 100.766 68.3652 102.923 68.3652 105.583C68.3652 108.243 70.4567 110.4 73.0367 110.4Z" fill="white"/>
<path d="M91.6363 110.4C94.2163 110.4 96.3077 108.243 96.3077 105.583C96.3077 102.923 94.2163 100.766 91.6363 100.766C89.0563 100.766 86.9648 102.923 86.9648 105.583C86.9648 108.243 89.0563 110.4 91.6363 110.4Z" fill="white"/>
<path d="M110.234 110.4C112.814 110.4 114.905 108.243 114.905 105.583C114.905 102.923 112.814 100.766 110.234 100.766C107.654 100.766 105.562 102.923 105.562 105.583C105.562 108.243 107.654 110.4 110.234 110.4Z" fill="#5A12BF"/>
</g>
<defs>
<clipPath id="clip0_46647_21275">
<rect width="180" height="120" fill="white"/>
</clipPath>
</defs>
</svg>
