<svg width="301" height="181" viewBox="0 0 301 181" fill="none" xmlns="http://www.w3.org/2000/svg">
<path d="M116.184 168.479L279.515 137.076L211.898 69.2078L62.1011 95.6423L116.184 168.479Z" fill="#8355FB"/>
<g opacity="0.5">
<mask id="mask0_5372_9307" style="mask-type:alpha" maskUnits="userSpaceOnUse" x="62" y="68" width="218" height="101">
<path d="M116.209 168.114L279.54 136.711L211.923 68.8425L62.126 95.2771L116.209 168.114Z" fill="url(#paint0_linear_5372_9307)"/>
</mask>
<g mask="url(#mask0_5372_9307)">
<path d="M138.47 171.258L136.612 171.623L73.6084 90.0832L75.2573 89.7942L138.47 171.258Z" fill="white"/>
<path d="M172.617 164.562L170.789 164.92L103.984 84.7759L105.612 84.4919L172.617 164.562Z" fill="white"/>
<path d="M206.228 157.971L204.428 158.323L133.943 79.5421L135.548 79.262L206.228 157.971Z" fill="white"/>
<path d="M239.319 151.482L237.546 151.829L163.495 74.3801L165.077 74.1038L239.319 151.482Z" fill="white"/>
<path d="M271.896 145.093L270.151 145.434L192.643 69.2876L194.204 69.0151L271.896 145.093Z" fill="white"/>
<path d="M61.7326 104.845L61.1851 104.122L231.644 74.082L232.29 74.7429L61.7326 104.845Z" fill="white"/>
<path d="M72.0302 118.46L71.4663 117.715L243.777 86.5127L244.441 87.1939L72.0302 118.46Z" fill="white"/>
<path d="M82.6414 132.489L82.061 131.721L256.258 99.301L256.942 100.001L82.6414 132.489Z" fill="white"/>
<path d="M93.5807 146.95L92.9814 146.158L269.104 112.46L269.806 113.181L93.5807 146.95Z" fill="white"/>
<path d="M104.861 161.863L104.244 161.047L282.325 126.008L283.05 126.75L104.861 161.863Z" fill="white"/>
</g>
</g>
<path d="M64.8008 96.1819C64.8008 96.1819 77.6539 51.7373 99.4184 55.9467C120.87 60.0955 92.8992 106.682 114.794 105.773C131.161 105.093 131.419 86.4634 138.601 71.9996C138.601 71.9996 142.651 62.5496 151.651 60.7496C160.651 58.9496 160.707 83.0298 165.601 87.2996C184.871 104.111 192.955 6.71793 208.715 26.4012C225.19 46.9776 179.619 136.336 214.256 122.071C235.39 113.367 221.401 74.1075 240.212 74.1075C253.205 74.1075 241.795 135.317 255.098 122.071C259.486 117.702 272.251 98.5496 279.001 98.5496" stroke="#8EFD01" stroke-width="7.2"/>
<path d="M196.65 162.9L265.05 149.4" stroke="#8EFD01" stroke-width="1.8"/>
<ellipse cx="293.062" cy="106.762" rx="7.7625" ry="7.7625" fill="#5A12BF"/>
<path d="M279.286 126.477C279.286 126.477 287.447 120.321 280.66 117.507C277.795 116.319 276.028 116.131 276.455 118.242C276.868 120.282 281.19 119.838 281.768 119.66C283.125 119.241 288.395 115.438 282.233 110.682C279.802 108.806 278.431 109.632 278.827 111.405C278.827 111.405 279.828 114.692 284.066 116.042C287.326 117.08 289.937 117.441 291.741 114.988C294.085 111.803 290.401 105.86 287.699 107.226C286.569 107.797 287.452 108.956 288.332 109.835C291.621 113.124 300.174 109.182 300.174 109.182" stroke="black" stroke-width="1.8"/>
<ellipse cx="197.775" cy="6.075" rx="6.075" ry="6.075" fill="#5A12BF"/>
<ellipse cx="232.987" cy="40.3877" rx="1.6875" ry="1.6875" fill="black"/>
<path d="M241.885 68.3999L262.574 63.3339L241.885 58.4489L244.204 42.3463L227.974 49.2216L225.477 33.2999L218.699 51.9355" stroke="#3A0078" stroke-width="1.8"/>
<path d="M80.1574 17.9869C84.7779 15.3192 90.1372 14.2051 95.4673 14.8043L92.9824 40.2004L80.1574 17.9869Z" fill="#70DF1D"/>
<path d="M95.3999 156.6L112.95 179.55L152.55 173.25" stroke="black" stroke-width="1.8"/>
<path d="M72.9001 148.432C72.9001 146.193 73.2868 144.011 74.0047 142.2L78.6841 148.432L72.9001 148.432Z" fill="#70DF1D"/>
<path d="M52.3007 102.932L4.5782 102.957" stroke="#8355FB" stroke-width="1.8"/>
<path d="M51.4547 93.1232L5.35179 80.7958" stroke="#8355FB" stroke-width="1.8"/>
<path d="M54.9273 84.2596L21.1647 50.5323" stroke="#8355FB" stroke-width="1.8"/>
<ellipse cx="77.8495" cy="134.55" rx="5.85" ry="5.85" fill="black"/>
<path d="M119.7 50.4116C119.7 50.4116 134.418 55.5152 140.701 50.2086C146.475 45.3326 145.403 31.4341 145.403 31.4341C145.403 31.4341 160.427 30.7619 162.098 23.7788C163.623 17.4082 153.103 9.68164 153.103 9.68164" stroke="black" stroke-width="1.8"/>
<defs>
<linearGradient id="paint0_linear_5372_9307" x1="170.833" y1="68.8425" x2="170.833" y2="168.114" gradientUnits="userSpaceOnUse">
<stop stop-color="#100F17"/>
<stop offset="1" stop-color="#4A2D87"/>
</linearGradient>
</defs>
</svg>
