<svg xmlns="http://www.w3.org/2000/svg" width="388" height="333" viewBox="0 0 388 333" fill="none">
<path fill-rule="evenodd" clipRule="evenodd" d="M215.922 231.314C217.428 226.679 215.778 221.601 211.835 218.736L158.724 180.149C154.781 177.284 149.442 177.284 145.499 180.149L92.3882 218.736C88.4452 221.601 86.7953 226.679 88.3014 231.314L99.3882 265.436C99.753 266.558 99.9388 267.732 99.9388 268.912L99.9386 330.165C99.9386 330.747 100.572 331.107 101.072 330.81L147.682 303.103C149.421 302.069 151.407 301.523 153.43 301.523H184.936C189.81 301.523 194.13 298.385 195.636 293.75L215.922 231.314Z" fill="#8355FB"/>
<mask id="mask0_5372_9385" style="mask-type:alpha" maskUnits="userSpaceOnUse" x="87" y="178" width="130" height="153">
<path fill-rule="evenodd" clipRule="evenodd" d="M215.922 231.314C217.428 226.679 215.778 221.601 211.835 218.736L158.724 180.149C154.781 177.284 149.442 177.284 145.499 180.149L92.3882 218.736C88.4452 221.601 86.7953 226.679 88.3014 231.314L99.3882 265.436C99.753 266.558 99.9388 267.732 99.9388 268.912L99.9386 330.165C99.9386 330.747 100.572 331.107 101.072 330.81L147.682 303.103C149.421 302.069 151.407 301.523 153.43 301.523H184.936C189.81 301.523 194.13 298.385 195.636 293.75L215.922 231.314Z" fill="url(#paint0_linear_5372_9385)"/>
</mask>
<g mask="url(#mask0_5372_9385)">
<path d="M95.8125 286.014C95.8125 286.014 99.8047 247.514 115.812 247.514C126.312 247.514 123.271 271.511 131.056 266.253C138.812 261.014 134.653 243.462 143.812 242.955C144.127 242.938 144.46 242.948 144.812 242.986C154.837 244.078 159.312 272.014 162.312 262.014C165.312 252.014 167.312 210.014 169.812 210.014C172.312 210.014 180.812 235.014 187.812 239.014C203.47 247.961 206.812 206.014 206.812 206.014" stroke="white" stroke-width="8"/>
</g>
<path fill-rule="evenodd" clipRule="evenodd" d="M276.235 62.5H111V140.775H230.76C230.819 140.971 230.927 141.137 231.09 141.224L268.123 161.176C268.653 161.461 269.097 160.492 268.759 159.787L259.635 140.775H276.235V62.5Z" fill="#8355FB"/>
<path fill-rule="evenodd" clipRule="evenodd" d="M167.336 82.5538H130.828V76.0848H167.336V82.5538Z" fill="white"/>
<path opacity="0.75" fill-rule="evenodd" clipRule="evenodd" d="M256.643 96.7855H130.828V94.8448H256.643V96.7855Z" fill="white"/>
<path opacity="0.5" fill-rule="evenodd" clipRule="evenodd" d="M256.643 111.017H130.828V109.077H256.643V111.017Z" fill="white"/>
<path opacity="0.25" fill-rule="evenodd" clipRule="evenodd" d="M256.643 125.249H130.828V123.308H256.643V125.249Z" fill="white"/>
<path fill-rule="evenodd" clipRule="evenodd" d="M69.75 234.25C108.272 234.25 139.5 203.022 139.5 164.5C139.5 125.978 108.272 94.75 69.75 94.75C31.2281 94.75 0 125.978 0 164.5C0 166.754 0.106868 168.982 0.315813 171.181L1.11097 241.592C1.11879 242.285 1.81059 242.76 2.45942 242.518L41.1456 228.134C49.8741 232.063 59.5567 234.25 69.75 234.25Z" fill="#8EFD01"/>
<rect x="38.25" y="145.75" width="13.5" height="56.25" fill="white"/>
<rect x="63" y="170.5" width="13.5" height="31.5" fill="white"/>
<rect x="87.75" y="124.75" width="13.5" height="77.25" fill="white"/>
<path fill-rule="evenodd" clipRule="evenodd" d="M220.5 151.75C214.287 151.75 209.25 156.787 209.25 163V240.25C209.25 246.463 214.287 251.5 220.5 251.5H326.741L362.552 264.721C363.327 265.007 364.113 264.346 363.64 263.805L342.755 239.899V163C342.755 156.787 337.718 151.75 331.505 151.75H220.5Z" fill="#8EFD01"/>
<path d="M315.451 204.148C315.463 214.219 311.7 223.923 304.913 231.322C304.396 231.893 303.852 232.455 303.294 232.998C297.766 238.39 290.803 242.049 283.248 243.533C282.491 243.688 281.724 243.811 280.953 243.916C279.173 244.157 277.378 244.277 275.582 244.277C265.213 244.276 255.253 240.208 247.814 232.937C240.375 225.666 236.043 215.764 235.736 205.331C235.736 204.942 235.736 204.554 235.736 204.162C235.736 203.769 235.736 203.376 235.736 202.993C236.033 192.759 240.205 183.028 247.396 175.788C254.587 168.549 264.255 164.35 274.421 164.051C274.806 164.051 275.196 164.051 275.582 164.051C275.968 164.051 276.362 164.051 276.743 164.051C287.109 164.354 296.949 168.711 304.176 176.197C311.402 183.683 315.447 193.709 315.451 204.148Z" fill="white"/>
<path d="M274.421 164.037C264.255 164.337 254.587 168.536 247.396 175.775C240.205 183.014 236.033 192.746 235.736 202.979H274.421V164.037Z" fill="#8355FB"/>
<path d="M235.736 205.331C236.039 215.766 240.37 225.672 247.809 232.946C255.249 240.22 265.211 244.289 275.582 244.291C277.378 244.291 279.173 244.17 280.953 243.93L274.598 205.331H235.736Z" fill="#3A0078"/>
<path d="M276.744 164.037V203.655L304.914 231.322C310.092 225.66 313.544 218.619 314.857 211.037C316.17 203.456 315.29 195.654 312.321 188.562C309.351 181.47 304.419 175.387 298.111 171.039C291.803 166.69 284.386 164.26 276.744 164.037Z" fill="#5A12BF"/>
<path d="M283.248 243.533C290.803 242.049 297.767 238.39 303.294 232.998L277.311 207.472L283.248 243.533Z" fill="#3E186F"/>
<path d="M15.6359 76.0139C15.6359 76.0139 14.0606 87.2626 21.604 84.1418C24.7884 82.8243 26.324 81.583 24.3306 80.2605C22.4034 78.9819 19.3557 82.7262 19.042 83.3199C18.3045 84.7155 17.1522 91.8435 25.7303 90.7392C29.1139 90.3035 29.5427 88.5772 27.8383 87.4962C27.8383 87.4962 24.4694 85.6999 20.0791 87.9691C16.7025 89.7143 14.3674 91.4818 14.8763 94.8267C15.5373 99.1706 23.1009 100.945 24.1514 97.7491C24.5905 96.4132 22.9862 96.1966 21.604 96.1966C16.436 96.1966 12.8125 106.014 12.8125 106.014" stroke="white" stroke-width="2"/>
<path d="M257.25 52.75H286.5V79" stroke="#8EFD01" stroke-width="2"/>
<path d="M173.062 159.264L143.812 159.264L143.813 133.014" stroke="white" stroke-width="2"/>
<circle cx="63" cy="82.75" r="6.75" fill="#5A12BF"/>
<circle cx="309.75" cy="109.75" r="11.25" fill="white"/>
<circle cx="200.625" cy="276.625" r="8.625" fill="#5A12BF"/>
<circle cx="278.625" cy="41.875" r="1.875" fill="white"/>
<path d="M50.7378 250.75L27.75 256.379L50.7378 261.807L48.1616 279.698L66.1951 272.059L68.9695 289.75L76.5 269.044" stroke="#8EFD01" stroke-width="2"/>
<path d="M315.75 156.013C315.75 156.013 332.104 161.684 339.085 155.787C345.5 150.37 344.31 134.927 344.31 134.927C344.31 134.927 361.002 134.18 362.86 126.421C364.554 119.343 352.865 110.757 352.865 110.757" stroke="white" stroke-width="2"/>
<path d="M352.125 237.25L385.125 278.5L331.5 263.875" stroke="#8355FB" stroke-width="2"/>
<path d="M282.583 280.582C278.989 285.295 273.971 288.733 268.25 290.401L259.922 263.299L282.583 280.582Z" fill="#70DF1D"/>
<path d="M78.0006 67.396C79.7596 65.637 81.7773 64.2269 83.7645 63.3679L82.5449 71.9404L78.0006 67.396Z" fill="#70DF1D"/>
<path d="M97.6523 57.625L110.777 6.25" stroke="#8355FB" stroke-width="2"/>
<path d="M87.3242 54.0214L86.7051 0.999996" stroke="#8355FB" stroke-width="2"/>
<path d="M76.8276 55.3276L49.7808 9.71922" stroke="#8355FB" stroke-width="2"/>
<defs>
<linearGradient id="paint0_linear_5372_9385" x1="152.112" y1="178" x2="152.112" y2="330.916" gradientUnits="userSpaceOnUse">
<stop stop-color="#100F17"/>
<stop offset="1" stop-color="#4A2D87"/>
</linearGradient>
</defs>
</svg>