<svg width="24" height="24" viewBox="0 0 24 24" fill="none" xmlns="http://www.w3.org/2000/svg">
<mask id="mask0_47828_2003" style="mask-type:luminance" maskUnits="userSpaceOnUse" x="0" y="0" width="24" height="24">
<path d="M18.1818 0H5.81818C2.60489 0 0 2.60489 0 5.81818V18.1818C0 21.3951 2.60489 24 5.81818 24H18.1818C21.3951 24 24 21.3951 24 18.1818V5.81818C24 2.60489 21.3951 0 18.1818 0Z" fill="white"/>
</mask>
<g mask="url(#mask0_47828_2003)">
<path d="M24 0H0V24H24V0Z" fill="#18181B"/>
<path d="M14.824 11.4521H7.73358V8.64631H14.824C15.2382 8.64631 15.5262 8.71851 15.6707 8.84456C15.8152 8.97064 15.9048 9.20445 15.9048 9.54602V10.5535C15.9048 10.9133 15.8152 11.1472 15.6707 11.2732C15.5262 11.3993 15.2382 11.4532 14.824 11.4532V11.4521ZM15.3105 6.00107H4.72656V18H7.73358V14.0963H13.2752L15.9048 18H19.272L16.3729 14.0779C17.4417 13.9195 17.9217 13.592 18.3175 13.0522C18.7133 12.5123 18.9118 11.6493 18.9118 10.4974V9.59775C18.9118 8.9146 18.8395 8.37478 18.7133 7.96104C18.5871 7.54727 18.3715 7.1874 18.0651 6.86415C17.7415 6.55815 17.3813 6.34264 16.9488 6.19825C16.5163 6.0722 15.9759 6 15.3105 6V6.00107Z" fill="white"/>
</g>
</svg>
