<svg  viewBox="0 0 24 24" fill="none" xmlns="http://www.w3.org/2000/svg">
<path fill-rule="evenodd" clip-rule="evenodd" d="M20.5 12C20.5 11.4477 20.0523 11 19.5 11L6.41421 11L10.7071 6.70711C11.0976 6.31658 11.0976 5.68342 10.7071 5.29289C10.3166 4.90237 9.68342 4.90237 9.29289 5.29289L3.29289 11.2929C3.10536 11.4804 3 11.7348 3 12C3 12.2652 3.10536 12.5196 3.29289 12.7071L9.29289 18.7071C9.68342 19.0976 10.3166 19.0976 10.7071 18.7071C11.0976 18.3166 11.0976 17.6834 10.7071 17.2929L6.41421 13L19.5 13C20.0523 13 20.5 12.5523 20.5 12Z" fill="#18181B"/>
</svg>
