<svg width="24" height="24" viewBox="0 0 24 24" fill="none" xmlns="http://www.w3.org/2000/svg">
    <path d="M15.856 12.8569C17.2151 12.8569 18.3631 13.7606 18.7318 14.9999L20.5703 14.9997C21.0437 14.9997 21.4275 15.3835 21.4275 15.8569C21.4275 16.3303 21.0437 16.714 20.5703 16.714L18.7316 16.7147C18.3625 17.9536 17.2148 18.8569 15.856 18.8569C14.4973 18.8569 13.3495 17.9536 12.9805 16.7147L3.42746 16.714C2.95407 16.714 2.57031 16.3303 2.57031 15.8569C2.57031 15.3835 2.95407 14.9997 3.42746 14.9997L12.9802 14.9999C13.349 13.7606 14.497 12.8569 15.856 12.8569ZM15.856 14.3569C15.0276 14.3569 14.356 15.0284 14.356 15.8569C14.356 16.6853 15.0276 17.3569 15.856 17.3569C16.6845 17.3569 17.356 16.6853 17.356 15.8569C17.356 15.0284 16.6845 14.3569 15.856 14.3569ZM8.99888 5.14258C10.3579 5.14258 11.5059 6.04629 11.8747 7.28558L20.5703 7.28544C21.0437 7.28544 21.4275 7.66919 21.4275 8.14258C21.4275 8.61597 21.0437 8.99972 20.5703 8.99972L11.8744 9.00044C11.5054 10.2393 10.3576 11.1426 8.99888 11.1426C7.64014 11.1426 6.49237 10.2393 6.12333 9.00044L3.42746 8.99972C2.95407 8.99972 2.57031 8.61597 2.57031 8.14258C2.57031 7.66919 2.95407 7.28544 3.42746 7.28544L6.12308 7.28558C6.49184 6.04629 7.63982 5.14258 8.99888 5.14258ZM8.99888 6.64258C8.17046 6.64258 7.49888 7.31415 7.49888 8.14258C7.49888 8.97101 8.17046 9.64258 8.99888 9.64258C9.82731 9.64258 10.4989 8.97101 10.4989 8.14258C10.4989 7.31415 9.82731 6.64258 8.99888 6.64258Z" fill="#1B1B1B"/>
</svg>
