<svg viewBox="0 0 40 40" fill="none" xmlns="http://www.w3.org/2000/svg">
<g id="Group 2087325960">
<circle id="Ellipse 3179" cx="20" cy="20" r="20" fill="#7001FD"/>
<g id="Group">
<g id="Layer_1">
<path id="Vector" d="M9.32812 19.9829C9.41803 19.5981 9.56136 19.2416 9.86548 18.9704C10.5801 18.3333 11.5392 18.3791 12.2538 19.0916C13.7395 20.5737 15.2226 22.0584 16.7053 23.5436C16.7623 23.6011 16.8044 23.6735 16.8809 23.7758C16.9693 23.6648 17.014 23.5949 17.0715 23.5374C20.512 20.0949 23.9545 16.6545 27.3944 13.2115C27.9081 12.6977 28.5015 12.5066 29.2068 12.727C30.2564 13.0548 30.6766 14.4429 29.9856 15.2988C29.9045 15.3994 29.8187 15.4981 29.7272 15.5895C25.8758 19.443 22.0228 23.2944 18.1725 27.1484C17.6546 27.6667 17.0541 27.8892 16.3482 27.6385C16.0939 27.5481 15.8453 27.3806 15.6521 27.1895C13.7195 25.2748 11.8002 23.3463 9.87422 21.4249C9.58345 21.1347 9.41443 20.7874 9.32812 20.3929V19.9829Z" fill="#F7F7FA"/>
</g>
</g>
</g>
</svg>
