<svg width="20" height="20" viewBox="0 0 20 20" fill="none" xmlns="http://www.w3.org/2000/svg">
<g id="24 / security / lock">
<path id="icon" fill-rule="evenodd" clip-rule="evenodd" d="M6.25128 5.7502V7.99945H5.50008C4.69877 7.99945 4 8.58176 4 9.37452V15.6249C4 16.4176 4.69877 16.9999 5.50008 16.9999H14.5006C15.3019 16.9999 16.0006 16.4176 16.0006 15.6249V9.37452C16.0006 8.58176 15.3019 7.99945 14.5006 7.99945H13.7517V5.7502C13.7517 3.67902 12.0727 2 10.0015 2C7.9303 2 6.25128 3.67902 6.25128 5.7502ZM12.2516 5.7502V7.99945H7.75136V5.7502C7.75136 4.50749 8.75877 3.50008 10.0015 3.50008C11.2442 3.50008 12.2516 4.50749 12.2516 5.7502ZM5.49872 15.4998V9.49948H14.4992V15.4998H5.49872ZM10.7497 12.5004C10.7497 12.9146 10.4139 13.2504 9.99967 13.2504C9.58544 13.2504 9.24963 12.9146 9.24963 12.5004C9.24963 12.0862 9.58544 11.7504 9.99967 11.7504C10.4139 11.7504 10.7497 12.0862 10.7497 12.5004Z" fill="#1B1B1B"/>
</g>
</svg>
