<svg viewBox="0 0 200 48" fill="none" xmlns="http://www.w3.org/2000/svg">
<path d="M76.9159 39.0045C73.4307 39.0045 70.3722 38.3755 67.7405 37.1176C65.1266 35.841 63.0906 34.048 61.6325 31.7388C60.1744 29.4107 59.4453 26.6603 59.4453 23.4874V23.4311C59.4453 20.2582 60.1744 17.5172 61.6325 15.2079C63.1084 12.8799 65.1533 11.0869 67.7672 9.82905C70.3989 8.55239 73.4485 7.91406 76.9159 7.91406C80.4012 7.91406 83.4596 8.55239 86.0913 9.82905C88.723 11.0869 90.7679 12.8799 92.226 15.2079C93.6842 17.5172 94.4132 20.2582 94.4132 23.4311V23.4874C94.4132 26.6603 93.6842 29.4107 92.226 31.7388C90.7679 34.048 88.723 35.841 86.0913 37.1176C83.4774 38.3755 80.4189 39.0045 76.9159 39.0045ZM76.9426 33.2877C78.9697 33.2877 80.7479 32.9028 82.2771 32.133C83.8242 31.3633 85.0244 30.2556 85.8779 28.81C86.7493 27.3456 87.1849 25.5714 87.1849 23.4874V23.4311C87.1849 21.3471 86.7493 19.5823 85.8779 18.1367C85.0244 16.6723 83.8242 15.5552 82.2771 14.7855C80.7301 14.0157 78.943 13.6309 76.9159 13.6309C74.9066 13.6309 73.1284 14.0157 71.5814 14.7855C70.0522 15.5552 68.8519 16.6723 67.9806 18.1367C67.1093 19.5823 66.6736 21.3471 66.6736 23.4311V23.4874C66.6736 25.5714 67.1004 27.3456 67.9539 28.81C68.8252 30.2556 70.0344 31.3633 71.5814 32.133C73.1284 32.9028 74.9155 33.2877 76.9426 33.2877Z" />
<path d="M39.4766 38.2441V8.50546L46.5718 8.53362V14.5039H46.7052C47.3276 12.4387 48.439 10.8241 50.0394 9.66008C51.6399 8.49607 53.5959 7.91406 55.9077 7.91406C56.4234 7.91406 56.9213 7.94222 57.4014 7.99855C57.8815 8.05487 58.2905 8.12058 58.6284 8.19568V14.532C58.1839 14.4382 57.677 14.3631 57.108 14.3067C56.539 14.2504 55.9432 14.2223 55.3209 14.2223C53.5426 14.2223 51.9955 14.579 50.6796 15.2924C49.3637 15.9871 48.3501 17.029 47.6388 18.4183C46.9275 19.7889 46.5718 21.4786 46.5718 23.4874V38.2441H39.4766Z" />
<path d="M0 47.9996V8.40439H7.09494V13.9804H7.2283C7.97514 12.7413 8.94424 11.6524 10.1356 10.7136C11.327 9.77492 12.7318 9.04272 14.3499 8.51704C15.9858 7.99136 17.8085 7.72852 19.8178 7.72852C22.9474 7.72852 25.6502 8.38562 27.9263 9.69983C30.2202 11.014 31.9895 12.8445 33.2342 15.1913C34.4789 17.5194 35.1013 20.2041 35.1013 23.2455V23.3019C35.1013 26.3433 34.4789 29.0374 33.2342 31.3842C31.9895 33.7123 30.2291 35.5334 27.953 36.8476C25.6769 38.1618 22.9741 38.8189 19.8445 38.8189C17.8351 38.8189 16.0125 38.5654 14.3766 38.0585C12.7584 37.5329 11.3448 36.81 10.1356 35.8901C8.94424 34.9514 7.97514 33.8531 7.2283 32.5952H7.09494V47.9996H0ZM17.5773 33.0458C19.7111 33.0458 21.5426 32.6515 23.0719 31.863C24.6189 31.0745 25.8014 29.9574 26.6194 28.5118C27.4373 27.0474 27.8463 25.3107 27.8463 23.3019V23.2455C27.8463 21.2367 27.4373 19.5094 26.6194 18.0638C25.8014 16.5994 24.6189 15.473 23.0719 14.6844C21.5426 13.8959 19.7111 13.5016 17.5773 13.5016C15.4435 13.5016 13.5942 13.9053 12.0294 14.7126C10.4646 15.5199 9.24653 16.6557 8.37523 18.1201C7.5217 19.5845 7.09494 21.293 7.09494 23.2455V23.3019C7.09494 25.2544 7.5217 26.9629 8.37523 28.4273C9.24653 29.8917 10.4646 31.0275 12.0294 31.8348C13.5942 32.6421 15.4435 33.0458 17.5773 33.0458Z" />
<path fill-rule="evenodd" clip-rule="evenodd" d="M181.595 11.4021C181.632 11.4447 181.678 11.473 181.733 11.4845C181.962 11.5326 182.151 11.2736 182.018 11.0803C180.425 8.75799 178.865 6.4853 177.339 4.26077L177.298 4.20135L177.297 4.1995L177.225 4.09507C176.276 2.71151 175.34 1.3466 174.416 0H177.562C179.362 3.75302 181.253 7.69884 183.241 11.8532C183.267 11.9075 183.312 11.9491 183.368 11.9702C183.553 12.0394 183.743 11.8649 183.681 11.6774C182.415 7.83171 181.218 4.19451 180.086 0.750078L180.085 0.748988C180.003 0.498307 179.921 0.248646 179.839 0H180.472C181.373 0 182.214 1.06898e-08 183.003 0.00305219C183.085 0.683163 183.168 1.37278 183.252 2.07207L183.256 2.09826L183.262 2.15288C183.646 5.33469 184.055 8.71666 184.49 12.3157C184.5 12.3984 184.551 12.4696 184.626 12.5054C184.784 12.5803 184.97 12.4721 184.978 12.298C185.196 7.84232 185.397 3.76856 185.582 0.0316613C187.137 0.0653516 188.444 0.134891 189.575 0.278427C188.41 3.94287 187.116 8.01344 185.673 12.559C185.596 12.7991 185.701 13.0597 185.919 13.1856C185.948 13.2024 185.986 13.1922 186.003 13.163C188.601 8.64496 190.887 4.66611 192.916 1.1332C193.059 1.19611 193.198 1.26252 193.336 1.33262C194.654 2.0055 195.83 2.90845 196.815 3.99077C196.22 4.54692 195.61 5.11705 194.984 5.70177L194.983 5.70238C192.522 8.00234 189.819 10.5281 186.838 13.3167C186.699 13.4469 186.722 13.6745 186.881 13.7796C186.975 13.8419 187.096 13.8446 187.193 13.7868C189.801 12.2339 192.241 10.7829 194.527 9.42394L194.528 9.42318L194.539 9.41657L194.547 9.41158C196.02 8.53563 197.429 7.69793 198.777 6.8958C199.311 8.02739 199.612 9.31814 199.781 10.9689C196.267 11.9606 192.455 13.037 188.31 14.2081C188.07 14.2759 188.012 14.5924 188.205 14.75C188.268 14.8014 188.346 14.8241 188.427 14.8157C192.53 14.389 196.361 13.9908 199.946 13.6184C199.975 14.5295 199.989 15.5314 199.995 16.6419C196.813 16.3365 193.489 16.0176 190.011 15.6845C189.72 15.6566 189.55 16.0212 189.734 16.248C189.779 16.3034 189.837 16.3372 189.906 16.3532C193.39 17.1537 196.753 17.9268 199.999 18.6738C199.999 18.9635 199.999 19.2597 199.999 19.5625V21.2775C197.06 20.0969 194.059 18.8916 190.992 17.6602C190.782 17.5759 190.564 17.8069 190.55 18.0327C190.542 18.1548 190.596 18.2589 190.704 18.3165L191.948 18.9793L192.017 19.0164C194.709 20.4513 197.37 21.8695 199.999 23.2712V25.8101C199.999 25.9233 199.999 26.0356 199.999 26.1469C196.675 23.7439 193.343 21.336 190.005 18.9236C189.935 18.8726 189.858 18.8562 189.775 18.8799C189.544 18.9453 189.417 19.2583 189.595 19.4173C193.031 22.4697 196.497 25.5485 199.995 28.6546C199.987 30.2282 199.965 31.5848 199.903 32.7745C198.398 31.0179 196.91 29.2814 195.439 27.5646L195.429 27.5526L195.428 27.5516L195.288 27.3876C192.824 24.5117 190.407 21.691 188.036 18.9236C188 18.881 187.954 18.853 187.899 18.842C187.673 18.7967 187.489 19.0512 187.62 19.241C191.362 24.6927 195.301 30.4308 199.453 36.4799C199.264 37.3015 199.01 38.0258 198.669 38.6968C198.256 39.5099 197.755 40.2692 197.179 40.963C196.324 39.1796 195.485 37.4315 194.663 35.7177C191.737 29.5808 189.002 23.8604 186.428 18.4987C186.401 18.4435 186.356 18.4018 186.298 18.3808C186.112 18.3129 185.923 18.4881 185.985 18.6762L186.09 18.9953L186.119 19.0841L186.12 19.0861L186.125 19.1015C187.86 24.3722 189.728 30.0479 191.742 36.1775C192.527 38.5645 193.337 41.027 194.174 43.5695C193.902 43.7368 193.622 43.8939 193.336 44.04C192.028 44.7074 190.518 45.0406 188.478 45.2069C188.088 41.9891 187.715 38.9188 187.357 35.9855C186.57 29.4196 185.846 23.4673 185.186 18.0493C185.176 17.9662 185.124 17.8954 185.048 17.86C184.891 17.7867 184.707 17.8939 184.699 18.0669C184.585 20.4126 184.464 22.87 184.337 25.4476L184.336 25.4785L184.335 25.4914C184.185 28.544 184.027 31.765 183.862 35.1685C183.769 37.0795 183.672 39.0567 183.571 41.1035L183.566 41.2119C183.499 42.5664 183.431 43.9514 183.362 45.3679C182.471 45.3726 181.511 45.3726 180.472 45.3726H175.255C176.04 42.903 176.79 40.5409 177.509 38.2789L177.695 37.6937C178.182 36.1606 178.654 34.6739 179.113 33.2312C179.968 30.5332 180.782 27.9711 181.556 25.5348L181.557 25.5325L181.566 25.5039L181.573 25.4816L181.577 25.4694L181.579 25.4611C182.46 22.688 183.289 20.0782 184.069 17.6166C184.108 17.4922 184.055 17.3582 183.94 17.295C183.809 17.2224 183.642 17.2665 183.568 17.3964C181.926 20.2509 180.152 23.3395 178.229 26.6877L178.228 26.6906C177.399 28.1336 176.543 29.6249 175.657 31.1665C173.497 34.9246 171.139 39.0295 168.549 43.5376L168.508 43.6094L168.506 43.6125L168.482 43.6542C168.172 44.195 167.858 44.7416 167.54 45.2941C164.748 45.1708 162.852 44.854 161.258 44.04C159.741 43.2659 158.412 42.1874 157.347 40.8815C161.292 37.1937 164.895 33.8231 168.202 30.7289L168.314 30.6239C169.383 29.6244 170.42 28.6537 171.429 27.7106C175.662 23.7679 179.444 20.2403 182.832 17.0679C182.973 16.9366 182.948 16.7075 182.787 16.6027C182.693 16.5413 182.574 16.5388 182.477 16.5964C178.37 19.0437 173.81 21.7532 168.72 24.7757C164.494 27.293 159.846 30.0597 154.709 33.1138C154.594 31.1983 154.594 28.8392 154.594 25.8101V23.7316C154.606 23.7281 154.619 23.7246 154.631 23.7211L154.772 23.6812C158.707 22.5719 162.399 21.5308 165.872 20.5508C171.515 18.9475 176.65 17.4965 181.337 16.1754C181.579 16.1071 181.636 15.7871 181.44 15.6294C181.377 15.5788 181.299 15.5563 181.218 15.5647C178.591 15.8376 175.848 16.1233 172.981 16.4218L172.95 16.4251L172.942 16.4259L172.886 16.4317C170.162 16.7155 167.326 17.0108 164.373 17.3178C161.264 17.6394 158.008 17.9777 154.594 18.3326C154.596 15.9018 154.61 13.9366 154.707 12.2959C157.654 12.5783 160.508 12.8513 163.272 13.1148C166.512 13.4268 169.639 13.7272 172.658 14.0172L172.664 14.0178C175.037 14.2458 177.344 14.4674 179.586 14.6831C179.882 14.7116 180.054 14.3393 179.865 14.1099C179.819 14.0549 179.763 14.0215 179.693 14.0056C172.169 12.2748 164.054 10.4086 155.268 8.38871C155.439 7.76996 155.654 7.20627 155.924 6.67583C156.374 5.79126 156.927 4.97028 157.568 4.22814C164.892 7.17417 171.882 9.98427 178.563 12.6685C178.777 12.7546 178.999 12.516 179.012 12.2856C179.019 12.1622 178.963 12.0581 178.854 12C174.4 9.62618 169.859 7.20602 165.228 4.73842C163.531 3.83398 161.821 2.92315 160.1 2.00591C160.472 1.76131 160.858 1.53641 161.258 1.33262C162.157 0.873546 163.152 0.572619 164.35 0.375358C169.442 4.05542 174.517 7.72448 179.574 11.3823C179.645 11.4334 179.72 11.4503 179.805 11.4273C180.04 11.3631 180.172 11.0437 179.989 10.8818C175.887 7.23789 171.826 3.63357 167.808 0.0673945C168.981 0.0215735 170.309 0.00690582 171.833 0.00221061C175.002 3.70161 178.255 7.50029 181.595 11.4021Z" />
<mask id="mask0_15417_47862" style="mask-type:alpha" maskUnits="userSpaceOnUse" x="154" y="0" width="46" height="46">
<path d="M154.594 19.5625C154.594 12.715 154.594 9.29124 155.924 6.67583C157.094 4.37525 158.961 2.50482 161.258 1.33262C163.868 0 167.286 0 174.121 0H180.472C187.307 0 190.725 0 193.336 1.33262C195.632 2.50482 197.499 4.37525 198.669 6.67583C199.999 9.29124 199.999 12.715 199.999 19.5625V25.8101C199.999 32.6576 199.999 36.0814 198.669 38.6968C197.499 40.9974 195.632 42.8678 193.336 44.04C190.725 45.3726 187.307 45.3726 180.472 45.3726H174.121C167.286 45.3726 163.868 45.3726 161.258 44.04C158.961 42.8678 157.094 40.9974 155.924 38.6968C154.594 36.0814 154.594 32.6576 154.594 25.8101V19.5625Z" fill="#751CFF"/>
</mask>
<g mask="url(#mask0_15417_47862)">
</g>
<path fill-rule="evenodd" clip-rule="evenodd" d="M105.29 6.51291C103.992 9.06449 103.992 12.4047 103.992 19.0851V26.2875C103.992 32.9679 103.992 36.3081 105.29 38.8597C106.432 41.1042 108.253 42.9289 110.493 44.0725C113.04 45.3726 116.375 45.3726 123.043 45.3726H130.347C137.015 45.3726 140.35 45.3726 142.897 44.0725C145.137 42.9289 146.959 41.1042 148.1 38.8597C149.398 36.3081 149.398 32.9679 149.398 26.2875V19.0851C149.398 12.4047 149.398 9.06449 148.1 6.51291C146.959 4.26847 145.137 2.44369 142.897 1.3001C140.35 0 137.015 0 130.347 0H123.043C116.375 0 113.04 0 110.493 1.3001C108.253 2.44369 106.432 4.26847 105.29 6.51291ZM133.62 17.3557C134.778 16.5727 136.136 16.1167 137.637 16.1167L137.636 16.1151C141.653 16.1151 144.856 19.2858 144.856 23.3523C144.856 27.4187 141.581 30.6265 137.618 30.6265C133.655 30.6265 130.417 27.3994 130.417 23.3893V10.2088H133.62V17.3557ZM120.168 16.6275L123.099 24.3205L126.048 16.6275H129.523L124.383 30.1544H122.139L119.027 22.0972L115.933 30.1544H113.689L108.532 16.6275H112.026L114.975 24.3205L117.924 16.6275H120.168ZM133.62 23.3716C133.62 25.6513 135.448 27.401 137.62 27.401C139.827 27.401 141.655 25.5772 141.655 23.3716C141.655 21.166 139.935 19.3615 137.637 19.3615C135.339 19.3615 133.62 21.0919 133.62 23.3716Z" />
</svg>
