<svg xmlns="http://www.w3.org/2000/svg" viewBox="0 0 180 45" fill="none">
<path d="M67.4198 36.2483C64.3647 36.2483 61.6838 35.698 59.3769 34.5973C57.0856 33.4803 55.3008 31.9114 54.0227 29.8908C52.7445 27.8537 52.1055 25.4471 52.1055 22.6708V22.6215C52.1055 19.8452 52.7445 17.4468 54.0227 15.4261C55.3164 13.3891 57.1089 11.8202 59.4002 10.7196C61.7071 9.60249 64.3803 9.04395 67.4198 9.04395C70.4749 9.04395 73.1559 9.60249 75.4628 10.7196C77.7697 11.8202 79.5622 13.3891 80.8403 15.4261C82.1185 17.4468 82.7575 19.8452 82.7575 22.6215V22.6708C82.7575 25.4471 82.1185 27.8537 80.8403 29.8908C79.5622 31.9114 77.7697 33.4803 75.4628 34.5973C73.1715 35.698 70.4905 36.2483 67.4198 36.2483ZM67.4432 31.2461C69.2201 31.2461 70.7788 30.9093 72.1193 30.2358C73.4754 29.5622 74.5275 28.593 75.2757 27.3281C76.0395 26.0467 76.4214 24.4943 76.4214 22.6708V22.6215C76.4214 20.798 76.0395 19.2538 75.2757 17.9889C74.5275 16.7075 73.4754 15.73 72.1193 15.0565C70.7632 14.383 69.1967 14.0462 67.4198 14.0462C65.6585 14.0462 64.0998 14.383 62.7437 15.0565C61.4032 15.73 60.3511 16.7075 59.5873 17.9889C58.8235 19.2538 58.4416 20.798 58.4416 22.6215V22.6708C58.4416 24.4943 58.8157 26.0467 59.5639 27.3281C60.3277 28.593 61.3876 29.5622 62.7437 30.2358C64.0998 30.9093 65.6663 31.2461 67.4432 31.2461Z"  />
<path d="M34.6016 35.583V9.56142L40.8208 9.58606V14.8101H40.9377C41.4833 13.003 42.4575 11.5903 43.8603 10.5717C45.2631 9.55321 46.9777 9.04395 49.0041 9.04395C49.4561 9.04395 49.8925 9.06859 50.3134 9.11787C50.7342 9.16715 51.0927 9.22465 51.3889 9.29036V14.8347C50.9992 14.7526 50.555 14.6869 50.0562 14.6376C49.5574 14.5883 49.0352 14.5637 48.4897 14.5637C46.931 14.5637 45.5749 14.8758 44.4214 15.5001C43.268 16.1079 42.3795 17.0196 41.756 18.2353C41.1326 19.4345 40.8208 20.913 40.8208 22.6708V35.583H34.6016Z" />
<path d="M0 44.1184V9.47226H6.21926V14.3513H6.33616C6.99082 13.2671 7.84032 12.3143 8.88466 11.4929C9.92899 10.6715 11.1604 10.0308 12.5788 9.57083C14.0128 9.11085 15.6105 8.88086 17.3718 8.88086C20.1152 8.88086 22.4844 9.45583 24.4796 10.6058C26.4903 11.7557 28.0412 13.3574 29.1323 15.4109C30.2234 17.4479 30.769 19.7971 30.769 22.4584V22.5077C30.769 25.169 30.2234 27.5264 29.1323 29.5799C28.0412 31.6169 26.4981 33.2104 24.5029 34.3603C22.5078 35.5103 20.1386 36.0853 17.3952 36.0853C15.6339 36.0853 14.0362 35.8635 12.6022 35.4199C11.1838 34.9599 9.94458 34.3275 8.88466 33.5225C7.84032 32.7011 6.99082 31.7401 6.33616 30.6394H6.21926V44.1184H0ZM15.4079 31.0337C17.2783 31.0337 18.8838 30.6887 20.2243 29.9988C21.5804 29.3088 22.6169 28.3313 23.3339 27.0664C24.0509 25.785 24.4094 24.2655 24.4094 22.5077V22.4584C24.4094 20.7006 24.0509 19.1893 23.3339 17.9243C22.6169 16.643 21.5804 15.6573 20.2243 14.9673C18.8838 14.2774 17.2783 13.9324 15.4079 13.9324C13.5374 13.9324 11.9164 14.2856 10.5447 14.992C9.17302 15.6984 8.1053 16.6923 7.34153 17.9736C6.59335 19.255 6.21926 20.7499 6.21926 22.4584V22.5077C6.21926 24.2162 6.59335 25.7111 7.34153 26.9925C8.1053 28.2738 9.17302 29.2677 10.5447 29.9741C11.9164 30.6805 13.5374 31.0337 15.4079 31.0337Z"  />
<path fill-rule="evenodd" clip-rule="evenodd" d="M159.173 12.0931C159.205 12.1304 159.245 12.1552 159.293 12.1653C159.495 12.2073 159.66 11.9808 159.543 11.8116C158.147 9.77954 156.78 7.79091 155.442 5.84442L155.406 5.79244L155.405 5.79082L155.342 5.69943C154.51 4.48881 153.689 3.2945 152.88 2.11621H155.638C157.215 5.40014 158.872 8.85278 160.616 12.4879C160.638 12.5354 160.678 12.5718 160.727 12.5903C160.889 12.6508 161.055 12.4981 161.001 12.3341C159.891 8.96903 158.842 5.78645 157.849 2.77254L157.849 2.77158C157.777 2.55223 157.705 2.33378 157.633 2.11621H158.188C158.978 2.11621 159.716 2.11621 160.407 2.11888C160.479 2.71399 160.551 3.3174 160.625 3.92929L160.628 3.95221L160.634 4C160.971 6.78412 161.329 9.74337 161.71 12.8926C161.719 12.9649 161.764 13.0272 161.83 13.0586C161.968 13.1241 162.131 13.0294 162.138 12.877C162.329 8.97832 162.505 5.41373 162.667 2.14391C164.031 2.17339 165.176 2.23424 166.168 2.35984C165.146 5.56626 164.012 9.12804 162.747 13.1055C162.68 13.3155 162.772 13.5436 162.963 13.6537C162.989 13.6685 163.022 13.6595 163.036 13.6339C165.314 9.68063 167.318 6.1991 169.097 3.10777C169.221 3.16282 169.344 3.22093 169.464 3.28226C170.62 3.87104 171.651 4.66113 172.514 5.60817C171.993 6.09481 171.458 6.59368 170.909 7.10532L170.909 7.10585C168.751 9.11834 166.381 11.3284 163.769 13.7684C163.647 13.8824 163.667 14.0815 163.806 14.1735C163.889 14.228 163.994 14.2304 164.079 14.1798C166.366 12.821 168.505 11.5514 170.508 10.3622L170.509 10.3616L170.519 10.3558L170.526 10.3514C171.817 9.58497 173.052 8.85197 174.234 8.1501C174.702 9.14025 174.966 10.2697 175.114 11.7141C172.034 12.5818 168.693 13.5237 165.059 14.5485C164.848 14.6078 164.797 14.8847 164.967 15.0226C165.022 15.0675 165.091 15.0875 165.161 15.0801C168.758 14.7067 172.116 14.3583 175.258 14.0324C175.284 14.8296 175.296 15.7063 175.301 16.6781C172.513 16.4108 169.598 16.1318 166.55 15.8403C166.295 15.8159 166.146 16.1349 166.307 16.3334C166.347 16.3818 166.397 16.4114 166.458 16.4254C169.512 17.1259 172.459 17.8023 175.305 18.4559C175.305 18.7094 175.305 18.9686 175.305 19.2336V20.7343C172.729 19.7012 170.098 18.6465 167.41 17.5691C167.226 17.4953 167.034 17.6975 167.022 17.895C167.015 18.0018 167.063 18.0929 167.158 18.1433L168.248 18.7233L168.309 18.7557C170.668 20.0113 173 21.2522 175.305 22.4787V24.7003C175.305 24.7994 175.305 24.8976 175.305 24.995C172.391 22.8924 169.471 20.7855 166.545 18.6745C166.483 18.6299 166.416 18.6155 166.343 18.6363C166.141 18.6935 166.029 18.9674 166.186 19.1065C169.197 21.7774 172.236 24.4714 175.302 27.1893C175.295 28.5662 175.275 29.7532 175.221 30.7942C173.902 29.2572 172.598 27.7378 171.308 26.2355L171.299 26.225L171.298 26.2241L171.175 26.0806C169.015 23.5641 166.897 21.096 164.819 18.6745C164.787 18.6372 164.746 18.6128 164.698 18.6031C164.5 18.5635 164.339 18.7862 164.454 18.9523C167.734 23.7226 171.187 28.7435 174.826 34.0365C174.661 34.7554 174.439 35.3891 174.139 35.9763C173.777 36.6877 173.338 37.3522 172.833 37.9592C172.083 36.3988 171.348 34.8692 170.627 33.3696C168.062 27.9997 165.665 22.9943 163.409 18.3027C163.386 18.2544 163.346 18.218 163.295 18.1996C163.132 18.1402 162.967 18.2935 163.021 18.458L163.113 18.7373L163.139 18.815L163.139 18.8167L163.144 18.8302C164.664 23.4422 166.302 28.4084 168.067 33.7719C168.755 35.8606 169.466 38.0153 170.199 40.2399C169.96 40.3864 169.715 40.5238 169.464 40.6516C168.318 41.2356 166.994 41.5271 165.206 41.6727C164.864 38.8571 164.537 36.1705 164.224 33.6039C163.534 27.8586 162.899 22.6503 162.32 17.9095C162.311 17.8368 162.266 17.7748 162.2 17.7438C162.062 17.6797 161.9 17.7735 161.893 17.9249C161.793 19.9775 161.688 22.1277 161.577 24.3831L161.575 24.4102L161.575 24.4215C161.443 27.0925 161.305 29.9109 161.16 32.889C161.078 34.5612 160.993 36.2912 160.905 38.0822L160.9 38.177C160.842 39.3622 160.782 40.5741 160.721 41.8136C159.941 41.8177 159.099 41.8177 158.188 41.8177H153.615C154.303 39.6568 154.961 37.5899 155.591 35.6106L155.754 35.0986C156.181 33.7571 156.595 32.4562 156.997 31.1939C157.747 28.8331 158.46 26.5912 159.138 24.4594L159.139 24.4574L159.147 24.4324L159.153 24.4129L159.156 24.4022L159.159 24.3949C159.931 21.9684 160.657 19.6848 161.341 17.5309C161.376 17.4221 161.329 17.3048 161.228 17.2495C161.113 17.186 160.967 17.2245 160.902 17.3382C159.463 19.836 157.908 22.5385 156.222 25.4682L156.221 25.4707C155.495 26.7334 154.744 28.0383 153.968 29.3872C152.074 32.6756 150.007 36.2674 147.737 40.212L147.701 40.2749L147.699 40.2775L147.678 40.3141C147.406 40.7873 147.131 41.2656 146.852 41.749C144.405 41.6411 142.743 41.3639 141.345 40.6516C140.016 39.9743 138.851 39.0306 137.917 37.8879C141.375 34.661 144.533 31.7118 147.433 29.0043L147.531 28.9124C148.468 28.0378 149.377 27.1885 150.261 26.3633C153.972 22.9133 157.287 19.8267 160.257 17.0507C160.38 16.9359 160.359 16.7354 160.218 16.6437C160.135 16.59 160.03 16.5878 159.946 16.6382C156.345 18.7796 152.348 21.1505 147.887 23.7952C144.183 25.9978 140.108 28.4188 135.605 31.0911C135.504 29.415 135.504 27.3508 135.504 24.7003V22.8816C135.515 22.8785 135.526 22.8754 135.536 22.8724L135.66 22.8375C139.109 21.8668 142.346 20.9559 145.39 20.0984C150.336 18.6954 154.838 17.4258 158.946 16.2698C159.159 16.21 159.208 15.9301 159.036 15.7921C158.981 15.7478 158.913 15.7281 158.842 15.7354C156.539 15.9743 154.135 16.2243 151.622 16.4855L151.594 16.4884L151.588 16.489L151.539 16.4941C149.15 16.7424 146.665 17.0008 144.076 17.2694C141.351 17.5508 138.497 17.8468 135.504 18.1574C135.506 16.0305 135.518 14.3109 135.603 12.8753C138.187 13.1224 140.688 13.3612 143.111 13.5918C145.951 13.8647 148.692 14.1276 151.339 14.3814L151.344 14.3819C153.424 14.5814 155.446 14.7753 157.412 14.9641C157.671 14.989 157.822 14.6632 157.656 14.4625C157.616 14.4144 157.566 14.3852 157.505 14.3712C150.91 12.8567 143.796 11.2239 136.095 9.45642C136.245 8.915 136.433 8.42176 136.67 7.95762C137.064 7.18362 137.549 6.46526 138.111 5.81587C144.531 8.39368 150.659 10.8525 156.515 13.2013C156.703 13.2766 156.897 13.0679 156.908 12.8662C156.914 12.7583 156.866 12.6672 156.77 12.6163C152.866 10.5392 148.885 8.42155 144.826 6.26238C143.338 5.47098 141.84 4.674 140.331 3.8714C140.657 3.65738 140.995 3.46059 141.345 3.28226C142.134 2.88057 143.006 2.61726 144.056 2.44465C148.52 5.66474 152.968 8.8752 157.401 12.0758C157.463 12.1205 157.529 12.1353 157.603 12.1152C157.809 12.059 157.925 11.7796 157.765 11.6379C154.169 8.44943 150.61 5.29562 147.087 2.17518C148.115 2.13509 149.279 2.12225 150.616 2.11815C153.393 5.35515 156.245 8.67904 159.173 12.0931Z" />
<mask id="mask0_15481_15324" style="mask-type:alpha" maskUnits="userSpaceOnUse" x="135" y="2" viewBox="0 0 41 40">
<path d="M135.504 19.2336C135.504 13.242 135.504 10.2461 136.67 7.95762C137.696 5.9446 139.332 4.30795 141.345 3.28226C143.634 2.11621 146.63 2.11621 152.621 2.11621H158.188C164.18 2.11621 167.176 2.11621 169.464 3.28226C171.477 4.30795 173.114 5.9446 174.139 7.95762C175.305 10.2461 175.305 13.242 175.305 19.2336V24.7003C175.305 30.692 175.305 33.6878 174.139 35.9763C173.114 37.9893 171.477 39.626 169.464 40.6516C167.176 41.8177 164.18 41.8177 158.188 41.8177H152.621C146.63 41.8177 143.634 41.8177 141.345 40.6516C139.332 39.626 137.696 37.9893 136.67 35.9763C135.504 33.6878 135.504 30.692 135.504 24.7003V19.2336Z" />
</mask>
<g mask="url(#mask0_15481_15324)">
</g>
<path fill-rule="evenodd" clip-rule="evenodd" d="M92.2821 7.81507C91.1445 10.0477 91.1445 12.9704 91.1445 18.8159V25.118C91.1445 30.9635 91.1445 33.8862 92.2821 36.1188C93.2828 38.0827 94.8795 39.6794 96.8434 40.6801C99.076 41.8177 101.999 41.8177 107.844 41.8177H114.246C120.092 41.8177 123.015 41.8177 125.247 40.6801C127.211 39.6794 128.808 38.0827 129.808 36.1188C130.946 33.8862 130.946 30.9635 130.946 25.1181V18.8159C130.946 12.9704 130.946 10.0477 129.808 7.81507C128.808 5.85117 127.211 4.25446 125.247 3.25381C123.015 2.11621 120.092 2.11621 114.246 2.11621H107.844C101.999 2.11621 99.076 2.11621 96.8434 3.25381C94.8795 4.25446 93.2828 5.85117 92.2821 7.81507ZM117.116 17.3026C118.131 16.6175 119.321 16.2185 120.637 16.2185L120.636 16.2171C124.157 16.2171 126.965 18.9915 126.965 22.5497C126.965 26.1079 124.094 28.9147 120.62 28.9147C117.147 28.9147 114.308 26.0909 114.308 22.5821V11.049H117.116V17.3026ZM105.324 16.6654L107.893 23.3969L110.478 16.6654H113.524L109.019 28.5016H107.052L104.324 21.4515L101.611 28.5016H99.6447L95.1238 16.6654H98.1868L100.772 23.3969L103.357 16.6654H105.324ZM117.116 22.5666C117.116 24.5614 118.718 26.0924 120.622 26.0924C122.556 26.0924 124.159 24.4965 124.159 22.5666C124.159 20.6366 122.652 19.0577 120.637 19.0577C118.623 19.0577 117.116 20.5718 117.116 22.5666Z" />
</svg>