<?xml version="1.0" encoding="UTF-8"?>
<svg xmlns="http://www.w3.org/2000/svg" xmlns:xlink="http://www.w3.org/1999/xlink" width="301px" height="181px" viewBox="0 0 301 181" version="1.1">
<g id="surface1">
<path style=" stroke:none;fill-rule:nonzero;fill:rgb(43.921569%,87.450981%,11.372549%);fill-opacity:1;" d="M 244.992188 158.316406 L 138.542969 76.347656 L 121.761719 83.65625 L 228.210938 165.625 Z M 244.992188 158.316406 "/>
<path style=" stroke:none;fill-rule:nonzero;fill:rgb(43.921569%,87.450981%,11.372549%);fill-opacity:1;" d="M 138.523438 76.503906 L 122.03125 83.6875 L 228.230469 165.464844 L 244.722656 158.28125 Z M 138.5625 76.1875 L 245.257812 158.351562 L 228.191406 165.785156 L 121.496094 83.621094 Z M 138.5625 76.1875 "/>
<path style=" stroke:none;fill-rule:nonzero;fill:rgb(43.921569%,87.450981%,11.372549%);fill-opacity:1;" d="M 288.894531 81.585938 L 278.03125 73.21875 L 72.429688 162.75 L 83.296875 171.117188 Z M 288.894531 81.585938 "/>
<path style=" stroke:none;fill-rule:nonzero;fill:rgb(43.921569%,87.450981%,11.372549%);fill-opacity:1;" d="M 278.007812 73.375 L 72.695312 162.78125 L 83.3125 170.957031 L 288.628906 81.550781 L 278.011719 73.375 M 278.050781 73.058594 L 289.164062 81.617188 L 83.273438 171.277344 L 72.15625 162.71875 Z M 278.050781 73.058594 "/>
<path style=" stroke:none;fill-rule:nonzero;fill:rgb(51.372552%,33.333334%,98.431373%);fill-opacity:1;" d="M 186.730469 108.066406 L 214.363281 96.03125 L 198.601562 83.890625 L 170.964844 95.925781 Z M 186.730469 108.066406 "/>
<path style=" stroke:none;fill-rule:nonzero;fill:rgb(51.372552%,33.333334%,98.431373%);fill-opacity:1;" d="M 239.523438 132.0625 L 290.234375 109.980469 L 274.46875 97.839844 L 223.757812 119.925781 Z M 239.523438 132.0625 "/>
<path style=" stroke:none;fill-rule:nonzero;fill:rgb(51.372552%,33.333334%,98.431373%);fill-opacity:1;" d="M 112.796875 117.921875 L 136.078125 107.789062 L 113.660156 90.523438 L 90.378906 100.660156 Z M 112.796875 117.921875 "/>
<path style=" stroke:none;fill-rule:nonzero;fill:rgb(51.372552%,33.333334%,98.431373%);fill-opacity:1;" d="M 128.257812 129.828125 L 151.535156 119.691406 L 143.089844 113.1875 L 119.8125 123.328125 Z M 128.257812 129.828125 "/>
<path style=" stroke:none;fill-rule:nonzero;fill:rgb(51.372552%,33.333334%,98.431373%);fill-opacity:1;" d="M 91.441406 146.910156 L 113.492188 137.304688 L 85.1875 115.507812 L 63.136719 125.113281 Z M 91.441406 146.910156 "/>
<path style=" stroke:none;fill-rule:nonzero;fill:rgb(51.372552%,33.333334%,98.431373%);fill-opacity:1;" d="M 238.25 147.738281 L 260.300781 138.132812 L 231.996094 116.335938 L 209.941406 125.941406 Z M 238.25 147.738281 "/>
<path style=" stroke:none;fill-rule:nonzero;fill:rgb(51.372552%,33.333334%,98.431373%);fill-opacity:1;" d="M 110.746094 180.507812 L 192.695312 144.824219 L 179.058594 134.324219 L 97.109375 170.011719 Z M 110.746094 180.507812 "/>
<path style=" stroke:none;fill-rule:nonzero;fill:rgb(51.372552%,33.333334%,98.431373%);fill-opacity:1;" d="M 205.164062 171.496094 L 219.320312 165.328125 L 203.8125 153.382812 L 189.652344 159.550781 Z M 205.164062 171.496094 "/>
<path style=" stroke:none;fill-rule:nonzero;fill:rgb(51.372552%,33.333334%,98.431373%);fill-opacity:1;" d="M 225.9375 90.5 L 243.839844 82.703125 L 202.6875 51.011719 L 184.785156 58.808594 Z M 225.9375 90.5 "/>
<path style=" stroke:none;fill-rule:nonzero;fill:rgb(51.372552%,33.333334%,98.431373%);fill-opacity:1;" d="M 181.863281 77.730469 L 206.910156 66.824219 L 192.273438 55.550781 L 167.222656 66.457031 Z M 181.863281 77.730469 "/>
<path style="fill-rule:nonzero;fill:rgb(0%,0%,0%);fill-opacity:1;stroke-width:2;stroke-linecap:round;stroke-linejoin:round;stroke:rgb(0%,0%,0%);stroke-opacity:1;stroke-miterlimit:4;" d="M 322.025799 93.548062 C 322.025799 65.627784 344.596657 43.00328 372.451075 43.00328 C 400.297511 43.00328 422.87635 65.627784 422.87635 93.548062 C 422.87635 105.318219 407.344918 133.238497 407.344918 133.238497 L 372.435112 195.69678 L 339.408871 136.615051 C 339.408871 136.615051 322.001856 105.334146 322.001856 93.548062 Z M 322.025799 93.548062 " transform="matrix(0.489431,0,0,0.490515,0,0)"/>
<path style="fill-rule:nonzero;fill:rgb(100%,100%,100%);fill-opacity:1;stroke-width:2;stroke-linecap:round;stroke-linejoin:round;stroke:rgb(0%,0%,0%);stroke-opacity:1;stroke-miterlimit:4;" d="M 372.259526 123.180508 C 389.075932 123.180508 402.715817 109.507057 402.715817 92.648179 C 402.715817 75.7893 389.075932 62.123813 372.259526 62.123813 C 355.435138 62.123813 341.803234 75.7893 341.803234 92.648179 C 341.803234 109.507057 355.435138 123.180508 372.259526 123.180508 Z M 372.259526 123.180508 " transform="matrix(0.489431,0,0,0.490515,0,0)"/>
<path style="fill:none;stroke-width:4;stroke-linecap:butt;stroke-linejoin:bevel;stroke:rgb(0%,0%,0%);stroke-opacity:1;stroke-miterlimit:4;" d="M 121.003102 356.497194 L 367.574556 249.442917 C 371.094269 247.913911 371.644972 243.135769 368.564226 240.842261 L 345.259097 223.521495 C 342.210276 221.259841 342.697129 216.561335 346.145011 214.968621 L 370.998495 203.501079 " transform="matrix(0.489431,0,0,0.490515,0,0)"/>
<path style="fill:none;stroke-width:4;stroke-linecap:butt;stroke-linejoin:bevel;stroke:rgb(51.372552%,33.333334%,98.431373%);stroke-opacity:1;stroke-miterlimit:4;" d="M 342.002764 33.693867 L 322.265236 1.00341 L 322.265236 47.383244 L 257.002894 33.693867 L 310.884032 73.989533 L 257.002894 92.998576 " transform="matrix(0.489431,0,0,0.490515,0,0)"/>
<path style=" stroke:none;fill-rule:nonzero;fill:rgb(43.921569%,87.450981%,11.372549%);fill-opacity:1;" d="M 220.734375 16.1875 L 222.796875 22.398438 C 223.734375 25.207031 225.929688 27.40625 228.730469 28.347656 L 234.929688 30.410156 L 228.730469 32.480469 C 225.929688 33.417969 223.734375 35.617188 222.796875 38.425781 L 220.734375 44.640625 L 218.671875 38.425781 C 217.738281 35.617188 215.542969 33.417969 212.742188 32.480469 L 206.539062 30.410156 L 212.742188 28.347656 C 215.542969 27.40625 217.738281 25.207031 218.671875 22.398438 Z M 220.734375 16.1875 "/>
<path style=" stroke:none;fill-rule:nonzero;fill:rgb(0%,0%,0%);fill-opacity:1;" d="M 299.042969 131.703125 C 299.042969 128.859375 296.742188 126.554688 293.902344 126.554688 C 291.066406 126.554688 288.765625 128.859375 288.765625 131.703125 C 288.765625 134.546875 291.066406 136.855469 293.902344 136.855469 C 296.742188 136.855469 299.042969 134.546875 299.042969 131.703125 Z M 299.042969 131.703125 "/>
<path style=" stroke:none;fill-rule:nonzero;fill:rgb(55.686277%,99.215686%,0.392157%);fill-opacity:1;" d="M 92.503906 58.125 C 92.503906 56.90625 91.515625 55.917969 90.300781 55.917969 C 89.082031 55.917969 88.097656 56.90625 88.097656 58.125 C 88.097656 59.34375 89.082031 60.332031 90.300781 60.332031 C 91.515625 60.332031 92.503906 59.34375 92.503906 58.125 Z M 92.503906 58.125 "/>
<path style="fill:none;stroke-width:4;stroke-linecap:butt;stroke-linejoin:miter;stroke:rgb(0%,0%,0%);stroke-opacity:1;stroke-miterlimit:10;" d="M 142.967387 164.997216 L 123.996055 164.997216 " transform="matrix(0.489431,0,0,0.490515,0,0)"/>
<path style="fill:none;stroke-width:4;stroke-linecap:butt;stroke-linejoin:miter;stroke:rgb(0%,0%,0%);stroke-opacity:1;stroke-miterlimit:10;" d="M 192.003932 164.997216 L 173.0326 164.997216 " transform="matrix(0.489431,0,0,0.490515,0,0)"/>
<path style="fill:none;stroke-width:4;stroke-linecap:butt;stroke-linejoin:miter;stroke:rgb(0%,0%,0%);stroke-opacity:1;stroke-miterlimit:10;" d="M 158.003984 180.032437 L 158.003984 199.001662 " transform="matrix(0.489431,0,0,0.490515,0,0)"/>
<path style="fill:none;stroke-width:4;stroke-linecap:butt;stroke-linejoin:miter;stroke:rgb(0%,0%,0%);stroke-opacity:1;stroke-miterlimit:10;" d="M 158.003984 131.000734 L 158.003984 149.969959 " transform="matrix(0.489431,0,0,0.490515,0,0)"/>
<path style="fill:none;stroke-width:4;stroke-linecap:butt;stroke-linejoin:miter;stroke:rgb(0%,0%,0%);stroke-opacity:1;stroke-miterlimit:10;" d="M 168.626973 175.628583 L 182.043384 189.039235 " transform="matrix(0.489431,0,0,0.490515,0,0)"/>
<path style="fill:none;stroke-width:4;stroke-linecap:butt;stroke-linejoin:miter;stroke:rgb(0%,0%,0%);stroke-opacity:1;stroke-miterlimit:10;" d="M 133.956603 140.955197 L 147.373014 154.373813 " transform="matrix(0.489431,0,0,0.490515,0,0)"/>
<path style="fill:none;stroke-width:4;stroke-linecap:butt;stroke-linejoin:miter;stroke:rgb(0%,0%,0%);stroke-opacity:1;stroke-miterlimit:10;" d="M 168.626973 154.373813 L 182.043384 140.955197 " transform="matrix(0.489431,0,0,0.490515,0,0)"/>
<path style="fill:none;stroke-width:4;stroke-linecap:butt;stroke-linejoin:miter;stroke:rgb(0%,0%,0%);stroke-opacity:1;stroke-miterlimit:10;" d="M 133.956603 189.039235 L 147.373014 175.628583 " transform="matrix(0.489431,0,0,0.490515,0,0)"/>
</g>
</svg>
