<svg xmlns="http://www.w3.org/2000/svg" viewBox="0 0 48 48" fill="none">
<g clip-path="url(#clip0_13912_18089)">
<path d="M-3.8147e-06 41.6133L9.95392 20.3782L10.9493 27.1248C8.95852 27.1248 7.15207 26.6455 5.52995 25.687C3.90783 24.7285 2.61751 23.4382 1.65899 21.816C0.700464 20.2676 0.221201 18.5349 0.221201 16.6179C0.221201 14.6271 0.700465 12.8206 1.65899 11.1985C2.61751 9.65014 3.90783 8.39668 5.52995 7.43816C7.15207 6.47963 8.95852 6.00037 10.9493 6.00037C12.9401 6.00037 14.7465 6.47963 16.3687 7.43816C17.9908 8.39668 19.318 9.68701 20.3502 11.3091C21.3088 13.005 21.788 14.8483 21.788 16.8391C21.788 18.8299 21.3456 20.8944 20.4608 23.0326C19.576 25.2446 18.0277 28.0096 15.8157 31.3276L9.29033 41.6133L-3.8147e-06 41.6133ZM26.3226 41.6133L36.1659 20.3783L37.2719 27.1248C35.2074 27.1248 33.4009 26.6455 31.8525 25.687C30.2304 24.7285 28.9401 23.4382 27.9816 21.816C26.9493 20.2677 26.4332 18.5349 26.4332 16.6179C26.4332 14.6271 26.9493 12.8206 27.9816 11.1985C28.9401 9.65014 30.2304 8.39669 31.8525 7.43816C33.4009 6.47964 35.2074 6.00038 37.2719 6.00038C39.1889 6.00038 40.9954 6.47964 42.6912 7.43816C44.3134 8.39669 45.6037 9.68701 46.5622 11.3091C47.5207 13.005 48 14.8483 48 16.8391C48 18.8299 47.5576 20.8944 46.6728 23.0326C45.788 25.2446 44.2396 28.0096 42.0276 31.3276L35.5023 41.6133L26.3226 41.6133Z" fill="#E6E6E6"/>
</g>
<defs>
<clipPath id="clip0_13912_18089">
<rect width="48" height="48" fill="white"/>
</clipPath>
</defs>
</svg>