<svg xmlns="http://www.w3.org/2000/svg" width="247" height="248" viewBox="0 0 247 248" fill="none">
<path fill-rule="evenodd" clipRule="evenodd" d="M122.668 88.1203H123.398L127.616 0.513184H119.756L121.652 87.1254C121.663 87.6794 122.116 88.1203 122.668 88.1203ZM112.51 89.7344L113.211 89.5293L92.5825 4.28204L85.041 6.49618L111.254 89.0673C111.421 89.5945 111.979 89.8897 112.51 89.7344ZM103.835 93.7505L103.833 93.752L60.0279 17.7662L53.4161 22.0143L101.826 93.8579C102.137 94.3161 102.754 94.4445 103.22 94.1454L103.833 93.752L103.833 93.7525L103.835 93.7505ZM95.5481 100.995L96.0273 100.443L32.5917 39.8731L27.4427 45.812L94.1314 101.112C94.557 101.465 95.1858 101.413 95.5481 100.995ZM90.4201 109.062L90.4193 109.063L12.4919 68.8141L9.22533 75.9626L88.7906 110.239C89.2986 110.457 89.8871 110.229 90.1172 109.727L90.4193 109.063L90.4201 109.064V109.062ZM87.3643 119.636L87.4678 118.913L1.35793 102.243L0.236479 110.022L86.2352 120.5C86.7835 120.568 87.2857 120.182 87.3643 119.636ZM87.4104 129.196L87.5139 129.919C87.5925 130.467 87.2187 130.975 86.6742 131.067L1.20652 145.235L0.0908203 137.456L87.4104 129.196ZM90.5524 139.743L90.2495 139.078V139.08L8.79212 171.6L12.0549 178.75L90.0693 141.081C90.5677 140.84 90.7824 140.245 90.5524 139.743ZM95.7608 147.762L96.2382 148.314C96.6005 148.732 96.5621 149.363 96.1519 149.735L31.9054 207.853L26.7621 201.91L95.7608 147.762ZM104.106 154.936L103.492 154.541L103.49 154.539L52.5381 225.93L59.1479 230.184L104.422 156.322C104.711 155.85 104.571 155.235 104.106 154.936ZM112.82 158.867L113.522 159.074C114.053 159.23 114.362 159.782 114.216 160.315L91.5798 243.938L84.0403 241.718L112.82 158.867ZM123.72 160.391H122.99L118.711 247.995L126.571 248L124.736 161.386C124.725 160.834 124.272 160.391 123.72 160.391ZM133.177 158.99L133.879 158.785C134.41 158.63 134.967 158.927 135.134 159.454L161.292 242.044L153.748 244.253L133.179 158.99H133.177ZM142.558 154.774L142.557 154.775V154.773L142.558 154.774ZM142.558 154.774L143.172 154.38C143.638 154.081 144.255 154.209 144.566 154.667L192.926 226.545L186.311 230.789L142.558 154.774ZM150.371 148.088L150.85 147.536C151.212 147.118 151.843 147.066 152.266 147.421L218.915 202.767L213.762 208.702L150.369 148.088H150.371ZM156.288 138.81L155.984 139.473L155.985 139.475L233.885 179.778L237.157 172.631L157.617 138.3C157.109 138.079 156.518 138.307 156.288 138.81ZM158.941 129.623L159.047 128.901C159.126 128.354 159.628 127.969 160.176 128.036L246.165 138.574L245.038 146.353L158.94 129.623H158.941ZM158.903 118.618L159.007 119.341V119.342L246.332 111.143L245.222 103.362L159.745 117.471C159.198 117.562 158.825 118.07 158.903 118.618ZM156.173 109.457L155.87 108.791C155.64 108.287 155.857 107.695 156.354 107.453L234.395 69.8378L237.652 76.9901L156.173 109.455V109.457ZM150.192 100.217L150.67 100.769L219.707 46.6689L214.567 40.7224L150.28 98.7961C149.87 99.168 149.83 99.7987 150.192 100.217ZM142.942 93.9844L142.329 93.5895C141.865 93.2904 141.723 92.6731 142.012 92.2035L187.338 18.3739L193.944 22.6315L142.942 93.9863V93.9844ZM132.914 89.4449L133.616 89.652L162.455 6.82012L154.918 4.59639L132.22 88.2027C132.077 88.7376 132.383 89.2877 132.914 89.4449Z" fill="white"/>
</svg>