<svg xmlns="http://www.w3.org/2000/svg" width="68" height="68" viewBox="0 0 68 68" fill="none">
<g clip-path="url(#clip0_5372_10069)">
<path d="M34 68C52.7777 68 68 52.7777 68 34C68 15.2223 52.7777 0 34 0C15.2223 0 0 15.2223 0 34C0 52.7777 15.2223 68 34 68Z" fill="url(#paint0_linear_5372_10069)"/>
<path fill-rule="evenodd" clipRule="evenodd" d="M15.3831 33.6409C25.2947 29.3225 31.9041 26.4756 35.2111 25.1001C44.6533 21.1728 46.6153 20.4905 47.8941 20.468C48.1753 20.4631 48.8042 20.5328 49.2116 20.8633C49.5555 21.1424 49.6502 21.5194 49.6955 21.7841C49.7407 22.0487 49.7971 22.6515 49.7523 23.1225C49.2406 28.4987 47.0266 41.5454 45.9003 47.5668C45.4237 50.1147 44.4852 50.969 43.5767 51.0526C41.6022 51.2343 40.1029 49.7478 38.1906 48.4942C35.1982 46.5326 33.5076 45.3115 30.6029 43.3974C27.2461 41.1852 29.4222 39.9694 31.3353 37.9824C31.8359 37.4624 40.5354 29.5496 40.7037 28.8318C40.7248 28.742 40.7443 28.4074 40.5455 28.2307C40.3467 28.054 40.0533 28.1144 39.8416 28.1625C39.5414 28.2306 34.761 31.3903 25.5002 37.6416C24.1433 38.5734 22.9142 39.0273 21.813 39.0036C20.599 38.9773 18.2638 38.3172 16.5279 37.7529C14.3986 37.0607 12.7063 36.6948 12.8537 35.5193C12.9304 34.9071 13.7736 34.2809 15.3831 33.6409Z" fill="white"/>
</g>
<defs>
<linearGradient id="paint0_linear_5372_10069" x1="3400" y1="0" x2="3400" y2="6749.57" gradientUnits="userSpaceOnUse">
<stop stop-color="#2AABEE"/>
<stop offset="1" stop-color="#229ED9"/>
</linearGradient>
<clipPath id="clip0_5372_10069">
<rect width="68" height="68" fill="white"/>
</clipPath>
</defs>
</svg>