<svg width="16" height="16" viewBox="0 0 16 16" fill="none" xmlns="http://www.w3.org/2000/svg">
<g id="24 / security / unlock">
<path id="icon" fill-rule="evenodd" clip-rule="evenodd" d="M9.99893 7.33464H11.3323V4.0013C11.3323 2.16035 9.83988 0.667969 7.99893 0.667969C6.15799 0.667969 4.6656 2.16035 4.6656 4.0013V5.33464H5.99894V4.0013C5.99894 2.89673 6.89437 2.0013 7.99893 2.0013C9.1035 2.0013 9.99893 2.89673 9.99893 4.0013V7.33464ZM3.9987 7.33535H11.9987C12.7351 7.33535 13.332 7.9323 13.332 8.66868V14.002C13.332 14.7384 12.7351 15.3353 11.9987 15.3353H3.9987C3.26232 15.3353 2.66536 14.7384 2.66536 14.002V8.66868C2.66536 7.9323 3.26232 7.33535 3.9987 7.33535ZM11.9989 14.0018V8.66844H3.99893V14.0018H11.9989ZM7.33203 11.3346C7.33203 11.7028 7.63051 12.0013 7.9987 12.0013C8.36689 12.0013 8.66536 11.7028 8.66536 11.3346C8.66536 10.9664 8.36689 10.668 7.9987 10.668C7.63051 10.668 7.33203 10.9664 7.33203 11.3346Z" fill="#1B1B1B"/>
</g>
</svg>
