<svg width="690" height="582" viewBox="0 0 690 582" fill="none" xmlns="http://www.w3.org/2000/svg">
<path d="M112 96H618V470H112V96Z" fill="#7001FD"/>
<path d="M56 152H562V526H56V152Z" fill="#8EFC01"/>
<path fill-rule="evenodd" clip-rule="evenodd" d="M561.5 246.501C560.444 246.501 557.669 245.842 553.567 240.504C549.58 235.316 545.536 227.149 541.95 216.118C537.406 202.138 533.896 184.495 531.947 164.562H561.5V154.063H531.081C530.525 145.838 530.231 137.288 530.231 128.5C530.231 114.973 530.928 102.01 532.202 89.9272H590.798C592.072 102.01 592.769 114.973 592.769 128.5C592.769 137.288 592.475 145.838 591.919 154.063H602.442C602.984 145.802 603.268 137.253 603.268 128.5C603.268 115.061 602.598 102.103 601.354 89.9272H673.052C677.231 102.014 679.501 114.992 679.501 128.5C679.501 137.278 678.542 145.832 676.724 154.063H687.457C689.125 145.802 690 137.253 690 128.5C690 57.5314 632.469 0 561.5 0C490.531 0 433 57.5314 433 128.5C433 199.469 490.531 257 561.5 257V246.501ZM446.276 154.063H520.558C520.016 145.802 519.732 137.253 519.732 128.5C519.732 115.061 520.402 102.103 521.646 89.9272H449.948C445.769 102.014 443.499 114.992 443.499 128.5C443.499 137.278 444.458 145.832 446.276 154.063ZM521.399 164.562H449.111C462.628 206.72 499.207 238.553 544 245.212C533.14 229.774 524.799 200.408 521.399 164.562ZM589.518 79.4281H533.482C535.517 64.7994 538.422 51.7364 541.95 40.8823C545.536 29.8507 549.58 21.684 553.567 16.4957C557.669 11.1578 560.444 10.4991 561.5 10.4991C562.556 10.4991 565.331 11.1578 569.433 16.4957C573.42 21.684 577.464 29.8507 581.05 40.8823C584.578 51.7364 587.483 64.7994 589.518 79.4281ZM668.845 79.4281H600.114C596.096 49.5296 588.515 25.3139 579 11.7878C619.057 17.7428 652.545 43.8291 668.845 79.4281ZM522.886 79.4281C526.904 49.5296 534.485 25.3139 544 11.7878C503.943 17.7428 470.455 43.8291 454.155 79.4281H522.886Z" fill="#8EFC01"/>
<path fill-rule="evenodd" clip-rule="evenodd" d="M622.891 212.379L587.688 177.175L595.111 169.751L630.315 204.955L665.518 169.751L672.942 177.175L637.739 212.379L672.942 247.582L665.518 255.006L630.315 219.803L595.111 255.006L587.688 247.582L622.891 212.379Z" fill="#8EFC01"/>
<path d="M0 208H506V582H0V208Z" fill="white"/>
<path d="M393.579 247.5C393.579 256.06 386.51 263 377.789 263C369.069 263 362 256.06 362 247.5C362 238.94 369.069 232 377.789 232C386.51 232 393.579 238.94 393.579 247.5Z" fill="#9237FF"/>
<path d="M437.79 247.5C437.79 256.06 430.721 263 422 263C413.28 263 406.211 256.06 406.211 247.5C406.211 238.94 413.28 232 422 232C430.721 232 437.79 238.94 437.79 247.5Z" fill="#9237FF"/>
<path d="M482.001 247.5C482.001 256.06 474.932 263 466.211 263C457.491 263 450.422 256.06 450.422 247.5C450.422 238.94 457.491 232 466.211 232C474.932 232 482.001 238.94 482.001 247.5Z" fill="#9237FF"/>
<path fill-rule="evenodd" clip-rule="evenodd" d="M506 289H0V285H506V289Z" fill="black"/>
<path fill-rule="evenodd" clip-rule="evenodd" d="M88.786 409L45.3926 365.607L66.6058 344.394L109.999 387.787L153.393 344.394L174.606 365.607L131.212 409L174.606 452.394L153.393 473.607L109.999 430.213L66.6058 473.607L45.3926 452.394L88.786 409Z" fill="#7001FD"/>
<path fill-rule="evenodd" clip-rule="evenodd" d="M304.786 409L261.393 365.607L282.606 344.394L325.999 387.787L369.393 344.394L390.606 365.607L347.212 409L390.606 452.394L369.393 473.607L325.999 430.213L282.606 473.607L261.393 452.394L304.786 409Z" fill="#7001FD"/>
<path fill-rule="evenodd" clip-rule="evenodd" d="M262.5 541H174V511H262.5V541Z" fill="#7001FD"/>
</svg>
