<svg width="24" height="24" viewBox="0 0 24 24" fill="none" xmlns="http://www.w3.org/2000/svg">
<circle cx="12" cy="12" r="12" fill="#FFE600"/>
<mask id="mask0_46308_13889" style="mask-type:alpha" maskUnits="userSpaceOnUse" x="0" y="0" width="24" height="24">
<circle cx="12" cy="12" r="12" fill="#FFC45B"/>
</mask>
<g mask="url(#mask0_46308_13889)">
<g filter="url(#filter0_f_46308_13889)">
<circle cx="0.922725" cy="14.4716" r="5.71765" fill="#FF7777"/>
</g>
<g filter="url(#filter1_f_46308_13889)">
<circle cx="23.0868" cy="14.4716" r="5.71765" fill="#FF7777"/>
</g>
</g>
<path d="M16.1731 14.6017C16.7046 14.2233 17.4336 14.6 17.2161 15.215C17.1759 15.3288 17.1314 15.4415 17.0829 15.5527C16.8062 16.1864 16.4006 16.7623 15.8894 17.2473C15.3781 17.7324 14.7711 18.1171 14.1031 18.3796C13.4351 18.6421 12.7192 18.7772 11.9961 18.7772C11.2731 18.7772 10.5571 18.6421 9.88911 18.3796C9.2211 18.1171 8.61414 17.7324 8.10287 17.2473C7.5916 16.7623 7.18604 16.1864 6.90934 15.5527C6.86079 15.4415 6.81637 15.3288 6.77612 15.215C6.55864 14.6 7.28768 14.2233 7.81911 14.6017C8.94748 15.4051 10.601 16.3772 11.9961 16.3772C13.3912 16.3772 15.0448 15.4051 16.1731 14.6017Z" fill="#955806"/>
<path d="M8.85533 10.1653C9.23132 10.1653 9.54406 9.8565 9.45724 9.49067C9.42446 9.35253 9.38158 9.21684 9.32883 9.08481C9.19198 8.74224 8.9914 8.43098 8.73853 8.16879C8.48566 7.9066 8.18547 7.69862 7.85508 7.55673C7.52469 7.41483 7.17059 7.3418 6.81298 7.3418C6.45537 7.3418 6.10127 7.41483 5.77088 7.55673C5.4405 7.69862 5.1403 7.9066 4.88743 8.16879C4.63457 8.43098 4.43398 8.74224 4.29713 9.08481C4.24438 9.21684 4.2015 9.35253 4.16872 9.49067C4.0819 9.8565 4.39464 10.1653 4.77063 10.1653H4.89798C5.20363 10.1653 5.44167 9.90891 5.55506 9.62507C5.62348 9.45378 5.72377 9.29815 5.85021 9.16706C5.97664 9.03596 6.12674 8.93197 6.29193 8.86103C6.45712 8.79008 6.63418 8.75356 6.81298 8.75356C6.99178 8.75356 7.16884 8.79008 7.33403 8.86103C7.49922 8.93197 7.64932 9.03596 7.77576 9.16706C7.90219 9.29815 8.00248 9.45378 8.07091 9.62507C8.1843 9.90891 8.42233 10.1653 8.72798 10.1653H8.85533Z" fill="#955806"/>
<path d="M19.2225 10.1653C19.5985 10.1653 19.9112 9.8565 19.8244 9.49067C19.7916 9.35253 19.7488 9.21684 19.696 9.08481C19.5592 8.74224 19.3586 8.43098 19.1057 8.16879C18.8529 7.9066 18.5527 7.69862 18.2223 7.55673C17.8919 7.41483 17.5378 7.3418 17.1802 7.3418C16.8226 7.3418 16.4685 7.41483 16.1381 7.55673C15.8077 7.69862 15.5075 7.9066 15.2546 8.16879C15.0018 8.43098 14.8012 8.74224 14.6643 9.08481C14.6116 9.21684 14.5687 9.35253 14.5359 9.49067C14.4491 9.8565 14.7618 10.1653 15.1378 10.1653H15.2652C15.5708 10.1653 15.8089 9.90891 15.9222 9.62507C15.9907 9.45378 16.091 9.29815 16.2174 9.16706C16.3438 9.03596 16.4939 8.93197 16.6591 8.86103C16.8243 8.79008 17.0014 8.75356 17.1802 8.75356C17.359 8.75356 17.536 8.79008 17.7012 8.86103C17.8664 8.93197 18.0165 9.03596 18.1429 9.16706C18.2694 9.29815 18.3697 9.45378 18.4381 9.62507C18.5515 9.90891 18.7895 10.1653 19.0952 10.1653H19.2225Z" fill="#955806"/>
<defs>
<filter id="filter0_f_46308_13889" x="-23.6185" y="-10.0696" width="49.0826" height="49.0821" filterUnits="userSpaceOnUse" color-interpolation-filters="sRGB">
<feFlood flood-opacity="0" result="BackgroundImageFix"/>
<feBlend mode="normal" in="SourceGraphic" in2="BackgroundImageFix" result="shape"/>
<feGaussianBlur stdDeviation="9.41177" result="effect1_foregroundBlur_46308_13889"/>
</filter>
<filter id="filter1_f_46308_13889" x="-1.45439" y="-10.0696" width="49.0826" height="49.0821" filterUnits="userSpaceOnUse" color-interpolation-filters="sRGB">
<feFlood flood-opacity="0" result="BackgroundImageFix"/>
<feBlend mode="normal" in="SourceGraphic" in2="BackgroundImageFix" result="shape"/>
<feGaussianBlur stdDeviation="9.41177" result="effect1_foregroundBlur_46308_13889"/>
</filter>
</defs>
</svg>
