<svg viewBox="0 0 166 124" fill="none" xmlns="http://www.w3.org/2000/svg">
<path d="M102.086 103.672L102.068 103.678L102.05 103.685C88.1845 109.248 73.3821 110.639 62.0146 110.63C56.3368 110.626 51.5303 110.272 48.1462 109.92C46.4544 109.744 45.119 109.568 44.2089 109.437C43.7538 109.372 43.4052 109.317 43.1715 109.279C43.0547 109.26 42.9667 109.246 42.9084 109.236L42.8436 109.225L42.8283 109.222L42.8249 109.221L42.8244 109.221L42.8243 109.221L42.4096 109.147L42.0668 109.392C33.6116 115.44 23.3244 118.636 15.1014 120.315C13.1923 120.704 11.3986 121.012 9.77025 121.253C14.7199 118.803 21.2877 114.294 28.3084 106.016L29.2035 104.96L27.9209 104.442L27.9205 104.442L27.9198 104.441L27.9129 104.438L27.8812 104.425C27.8522 104.413 27.8076 104.395 27.7483 104.369C27.6298 104.318 27.4526 104.241 27.2241 104.136C26.7671 103.927 26.1054 103.611 25.2979 103.187C23.6813 102.339 21.4879 101.061 19.1834 99.3494C14.5539 95.9102 9.58689 90.8004 7.81623 83.9876L7.8051 83.9448L7.79023 83.9031C3.18866 71.0068 7.44637 56.1585 18.3794 42.5079C29.3008 28.8719 46.7888 16.5735 68.2734 8.9076C89.758 1.24165 111.081 -0.308272 128.168 3.33422C145.273 6.9806 157.968 15.7798 162.569 28.6762C167.171 41.5726 162.913 56.4208 151.98 70.0714C141.059 83.7074 123.571 96.0058 102.086 103.672Z" stroke="white" stroke-width="2"/>
<path d="M26.5964 46.755L36.2345 43.29L40.5216 55.2147L38.5059 55.9394L34.8704 45.8271L29.2637 47.8428L32.8993 57.9551L30.8836 58.6798L26.5964 46.755ZM43.3127 44.2265C45.8535 43.3131 48.2281 44.5443 49.1903 47.2206C50.1524 49.8969 49.1054 52.3583 46.5646 53.2717C44.0238 54.1852 41.6493 52.9539 40.6871 50.2776C39.7249 47.6013 40.7719 45.14 43.3127 44.2265ZM42.652 49.5712C43.2488 51.2312 44.5267 52.0725 45.9496 51.5609C47.3724 51.0494 47.8222 49.587 47.2254 47.927C46.6286 46.267 45.3506 45.4258 43.9278 45.9373C42.5049 46.4488 42.0552 47.9112 42.652 49.5712ZM54.1822 50.3035L52.2512 50.9978L49.1454 42.3591L51.0764 41.6649L52.3675 45.2558L54.3964 40.4713L56.6831 39.6492L54.406 45.0203L59.8397 48.2696L57.5022 49.11L52.7328 46.2722L54.1822 50.3035ZM63.7189 40.4097C63.3535 39.3934 62.4424 39.1471 61.4769 39.4942C60.4776 39.8535 60.1169 40.4996 60.1254 41.1086L58.2961 41.7663C58.0447 40.2691 58.8549 38.6388 60.9723 37.8776C63.0896 37.1164 64.9035 37.7458 65.6282 39.7615L67.6743 45.4529L65.8788 46.0984L65.5256 45.116C65.2068 46.0913 64.3935 46.8619 63.2756 47.2638C61.5987 47.8667 59.9121 47.3254 59.3031 45.6316C58.6881 43.9208 59.6439 42.4294 61.7951 41.6561L63.8955 40.9009L63.7189 40.4097ZM61.2267 44.8635C61.5068 45.6427 62.2688 45.8469 63.1327 45.5363C64.2845 45.1222 65.0281 44.0515 64.608 42.8827L64.4192 42.3576L62.4543 43.0641C61.4719 43.4173 60.9466 44.0843 61.2267 44.8635ZM75.7298 32.8016L77.9487 32.0038L76.0564 37.2749L81.1053 40.6242L78.8355 41.4403L74.3528 38.442L75.8204 42.5242L73.9233 43.2063L72.4557 39.1241L70.9082 44.2902L68.6554 45.1002L70.4111 39.3427L65.5835 36.4493L67.8025 35.6516L72.1329 38.2263L70.8176 34.5676L72.7147 33.8856L74.0301 37.5443L75.7298 32.8016ZM86.7185 28.8509L89.8243 37.4896L87.9272 38.1717L85.8627 32.4295L84.0143 39.5784L82.1511 40.2483L79.0453 31.6096L80.9425 30.9275L83.0069 36.6697L84.8553 29.5208L86.7185 28.8509ZM92.0642 26.9291L94.5034 26.0522L99.5006 31.3329L99.9915 24.0791L102.397 23.2144L105.503 31.853L103.639 32.5229L101.508 26.5944L101.035 33.4207L99.6127 33.9323L94.914 29.0033L97.0332 34.8979L95.17 35.5677L92.0642 26.9291ZM105.464 27.0084C104.453 24.1966 105.543 21.8538 107.982 20.9768C110.353 20.1243 112.498 21.247 113.435 23.8556L113.722 24.6517L107.641 26.8379L107.653 26.8718C108.122 28.176 109.419 28.8574 110.808 28.3581C111.841 27.9866 112.239 27.2314 112.234 26.7931L114.132 26.1111C114.307 27.2912 113.707 29.1329 111.352 29.9794C108.795 30.899 106.469 29.8032 105.464 27.0084ZM107.134 25.3751L111.284 23.8831C110.766 22.654 109.746 22.1597 108.544 22.5921C107.324 23.0306 106.808 24.0959 107.134 25.3751ZM118.506 27.1779L116.575 27.8721L113.47 19.2334L115.401 18.5392L116.594 21.8592L120.304 20.5255L119.11 17.2056L121.041 16.5113L124.147 25.15L122.216 25.8443L120.919 22.2363L117.209 23.57L118.506 27.1779ZM125.332 24.724L126.42 20.8326C125.165 20.748 124.185 19.9909 123.765 18.8221C123.18 17.196 123.819 15.5129 125.902 14.7638L129.595 13.4363L132.7 22.075L130.786 22.7631L129.781 19.9682L128.477 20.4371L127.5 23.9445L125.332 24.724ZM125.685 18.1509C125.971 18.9471 126.731 19.3051 127.68 18.964L129.221 18.4099L128.247 15.6997L126.705 16.2539C125.774 16.5888 125.399 17.3548 125.685 18.1509ZM37.7395 71.7341C40.2803 70.8206 42.6549 72.0519 43.6171 74.7282C44.5792 77.4045 43.5322 79.8658 40.9914 80.7793C38.4507 81.6927 36.0761 80.4615 35.1139 77.7852C34.1517 75.1089 35.1987 72.6475 37.7395 71.7341ZM37.0788 77.0788C37.6756 78.7388 38.9535 79.58 40.3764 79.0685C41.7992 78.5569 42.249 77.0946 41.6522 75.4346C41.0554 73.7746 39.7774 72.9333 38.3546 73.4449C36.9318 73.9564 36.482 75.4188 37.0788 77.0788ZM48.0387 68.0313C50.0544 67.3067 52.4271 68.2134 53.4928 71.1777C54.5585 74.1419 53.2894 76.358 51.2398 77.0948C49.9864 77.5455 48.9107 77.3201 48.2619 76.8456L49.7721 81.0464L47.8411 81.7406L43.5723 69.8667L45.4355 69.1968L45.8374 70.3147C46.0112 69.468 46.6667 68.5246 48.0387 68.0313ZM47.0175 73.5439C47.6265 75.2378 48.9309 75.993 50.3029 75.4997C51.658 75.0126 52.1538 73.5719 51.5449 71.878C50.942 70.2011 49.6362 69.3889 48.2811 69.8761C46.9091 70.3694 46.3842 71.7823 46.9931 73.4762L47.0175 73.5439ZM56.5454 74.9578L53.4396 66.3192L59.3681 64.1878L59.9771 65.8816L55.9796 67.3188L58.4764 74.2636L56.5454 74.9578ZM66.6897 64.8455C66.3243 63.8292 65.4133 63.5829 64.4478 63.93C63.4484 64.2893 63.0877 64.9355 63.0963 65.5445L61.2669 66.2022C61.0156 64.7049 61.8258 63.0747 63.9431 62.3135C66.0604 61.5522 67.8744 62.1817 68.599 64.1974L70.6452 69.8887L68.8497 70.5342L68.4965 69.5518C68.1777 70.5272 67.3644 71.2978 66.2465 71.6997C64.5695 72.3026 62.883 71.7612 62.274 70.0674C61.6589 68.3566 62.6147 66.8653 64.7659 66.0919L66.8663 65.3368L66.6897 64.8455ZM64.1976 69.2993C64.4777 70.0785 65.2397 70.2827 66.1036 69.9721C67.2554 69.558 67.999 68.4873 67.5788 67.3186L67.39 66.7935L65.4252 67.4999C64.4427 67.8531 63.9174 68.5201 64.1976 69.2993ZM74.5058 68.5008L72.5748 69.195L69.4691 60.5563L71.4001 59.8621L72.5937 63.182L76.3032 61.8484L75.1096 58.5284L77.0406 57.8342L80.1464 66.4729L78.2154 67.1671L76.9183 63.5592L73.2087 64.8928L74.5058 68.5008ZM86.7119 54.3572L89.8177 62.9959L87.9205 63.6779L85.8561 57.9358L84.0077 65.0847L82.1445 65.7545L79.0387 57.1159L80.9359 56.4338L83.0003 62.176L84.8487 55.0271L86.7119 54.3572ZM89.1719 56.2081C88.7432 54.4303 89.9727 52.9554 91.8021 52.2977C93.6145 51.6461 95.3336 52.1183 95.8756 53.6259C96.2593 54.693 95.8166 55.4834 95.2981 55.9567C96.0135 55.8716 97.1461 56.0957 97.6089 57.383C98.1874 58.9922 97.1205 60.6 95.0201 61.3551C93.0213 62.0737 91.1884 61.6041 90.3409 59.9386L92.2211 59.2626C92.6754 59.9409 93.516 60.0978 94.4477 59.7629C95.4301 59.4097 95.9215 58.7548 95.6475 57.9925C95.3917 57.2811 94.7109 57.1433 93.6607 57.5209L92.3904 57.9776L91.8423 56.4531L93.011 56.0329C93.9088 55.7102 94.2769 55.1379 94.0333 54.4604C93.7958 53.7998 93.1028 53.6281 92.2729 53.9265C91.3582 54.2553 90.9575 54.8967 91.0182 55.5443L89.1719 56.2081ZM103.033 51.7796C102.668 50.7632 101.756 50.5169 100.791 50.8641C99.7916 51.2233 99.4309 51.8695 99.4395 52.4785L97.6101 53.1362C97.3587 51.6389 98.169 50.0087 100.286 49.2475C102.404 48.4863 104.218 49.1157 104.942 51.1314L106.988 56.8227L105.193 57.4683L104.84 56.4858C104.521 57.4612 103.708 58.2318 102.59 58.6337C100.913 59.2366 99.2261 58.6953 98.6172 57.0014C98.0021 55.2906 98.9579 53.7993 101.109 53.0259L103.21 52.2708L103.033 51.7796ZM100.541 56.2333C100.821 57.0125 101.583 57.2167 102.447 56.9062C103.599 56.4921 104.342 55.4214 103.922 54.2526L103.733 53.7275L101.768 54.4339C100.786 54.7871 100.261 55.4542 100.541 56.2333ZM105.595 49.4813L104.986 47.7874L112.439 45.108L113.048 46.8018L110.287 47.7944L112.784 54.7393L110.853 55.4335L108.356 48.4887L105.595 49.4813ZM117.117 43.1964C119.658 42.283 122.033 43.5142 122.995 46.1905C123.957 48.8668 122.91 51.3282 120.369 52.2416C117.828 53.1551 115.454 51.9239 114.492 49.2476C113.529 46.5713 114.577 44.1099 117.117 43.1964ZM116.457 48.5412C117.053 50.2011 118.331 51.0424 119.754 50.5309C121.177 50.0193 121.627 48.5569 121.03 46.8969C120.433 45.237 119.155 44.3957 117.732 44.9072C116.31 45.4188 115.86 46.8812 116.457 48.5412ZM127.416 39.4937C129.432 38.769 131.805 39.6758 132.871 42.64C133.936 45.6043 132.667 47.8203 130.618 48.5572C129.364 49.0078 128.288 48.7825 127.64 48.308L129.15 52.5087L127.219 53.203L122.95 41.329L124.813 40.6592L125.215 41.7771C125.389 40.9304 126.044 39.987 127.416 39.4937ZM126.395 45.0063C127.004 46.7001 128.309 47.4554 129.681 46.9621C131.036 46.4749 131.532 45.0342 130.923 43.3404C130.32 41.6634 129.014 40.8513 127.659 41.3385C126.287 41.8318 125.762 43.2447 126.371 44.9385L126.395 45.0063ZM138.276 35.8192L140.359 35.0702L139.97 48.6188L137.903 49.3617L138.017 45.476L131.653 38.2003L133.736 37.4513L138.229 42.8178L138.276 35.8192ZM67.208 96.6283L65.277 97.3226L62.1713 88.6839L64.1023 87.9897L65.2959 91.3096L69.0054 89.976L67.8118 86.656L69.7428 85.9618L72.8486 94.6005L70.9176 95.2947L69.6205 91.6868L65.9109 93.0204L67.208 96.6283ZM77.853 86.3361C77.4876 85.3198 76.5766 85.0735 75.6111 85.4206C74.6117 85.7799 74.251 86.426 74.2595 87.035L72.4302 87.6927C72.1788 86.1954 72.9891 84.5652 75.1064 83.804C77.2237 83.0428 79.0376 83.6722 79.7623 85.6879L81.8084 91.3793L80.0129 92.0248L79.6597 91.0423C79.3409 92.0177 78.5277 92.7883 77.4097 93.1902C75.7328 93.7931 74.0462 93.2518 73.4372 91.5579C72.8222 89.8471 73.778 88.3558 75.9292 87.5824L78.0296 86.8273L77.853 86.3361ZM75.3608 90.7898C75.6409 91.569 76.403 91.7733 77.2668 91.4627C78.4187 91.0486 79.1623 89.9779 78.7421 88.8091L78.5533 88.284L76.5884 88.9904C75.606 89.3436 75.0807 90.0107 75.3608 90.7898ZM87.0881 89.4811L83.9824 80.8425L87.8613 79.4479C89.7923 78.7537 91.0602 79.4073 91.5108 80.6607C91.8701 81.6601 91.5134 82.477 90.972 82.9394C91.8642 82.8673 92.8591 83.2938 93.2854 84.4795C93.7848 85.8685 93.1013 87.3193 91.1364 88.0257L87.0881 89.4811ZM88.4493 87.3085L90.3634 86.6204C91.2442 86.3037 91.5493 85.7158 91.2996 85.0213C91.0499 84.3268 90.4525 84.1017 89.5717 84.4183L87.6577 85.1065L88.4493 87.3085ZM87.134 83.6498L88.8786 83.0225C89.6409 82.7485 89.9243 82.2066 89.6989 81.5799C89.4675 80.9363 88.9392 80.7436 88.16 81.0238L86.4154 81.651L87.134 83.6498ZM94.7352 86.7319L96.1913 81.3116L91.6633 78.081L93.8823 77.2833L96.988 79.5906L97.8798 75.8461L100.014 75.0788L98.621 80.5146L103.154 83.7053L100.918 84.5091L97.8242 82.2357L96.8864 85.9585L94.7352 86.7319ZM104.493 73.239C107.034 72.3255 109.408 73.5568 110.371 76.2331C111.333 78.9093 110.286 81.3707 107.745 82.2842C105.204 83.1976 102.83 81.9664 101.867 79.2901C100.905 76.6138 101.952 74.1524 104.493 73.239ZM103.832 78.5837C104.429 80.2437 105.707 81.0849 107.13 80.5734C108.553 80.0618 109.003 78.5994 108.406 76.9395C107.809 75.2795 106.531 74.4382 105.108 74.9498C103.685 75.4613 103.236 76.9237 103.832 78.5837ZM121.616 75.1548L123.005 79.0168L121.142 79.6867L120.362 77.5185L114.264 79.7108L115.044 81.879L113.181 82.5488L111.792 78.6868L112.487 78.4372C112.947 77.9083 112.857 76.7546 112.484 75.3968L111.277 71.0295L117.866 68.6606L120.363 75.6054L121.616 75.1548ZM114.57 77.6881L118.432 76.2997L116.544 71.0487L113.597 72.1083L114.338 74.8069C114.637 75.9045 114.882 76.9065 114.57 77.6881ZM121.476 72.2596C120.465 69.4478 121.555 67.105 123.994 66.2281C126.365 65.3755 128.51 66.4983 129.447 69.1068L129.734 69.903L123.653 72.0892L123.665 72.123C124.134 73.4273 125.431 74.1087 126.82 73.6093C127.853 73.2379 128.251 72.4827 128.246 72.0444L130.144 71.3623C130.319 72.5425 129.719 74.3842 127.364 75.2307C124.807 76.1502 122.481 75.0545 121.476 72.2596ZM123.146 70.6263L127.296 69.1344C126.777 67.9053 125.758 67.411 124.555 67.8434C123.336 68.2818 122.82 69.3472 123.146 70.6263Z" fill="white"/>
</svg>
