<svg width="347" height="400" viewBox="0 0 347 400" fill="none" xmlns="http://www.w3.org/2000/svg">
    <path d="M807.155 795.66C776.22 829.245 573.818 742.051 355.304 601.067C136.79 460.083 -20.9883 314.787 3.06486 276.805C27.118 238.822 229.569 325.988 454.916 471.397C680.264 616.805 838.09 762.074 807.155 795.66Z" fill="url(#paint0_linear_0_1)"/>
    <path d="M920.698 672.334C888.949 706.833 680.249 616.807 454.902 471.399C229.554 325.99 66.9011 176.343 91.8433 137.467C116.758 98.5427 325.458 188.568 557.639 338.402C789.82 488.235 952.521 637.855 920.698 672.334Z" fill="url(#paint1_linear_0_1)"/>
    <path d="M1037.14 546.017C1004.67 581.252 789.832 488.236 557.651 338.403C325.47 188.569 157.806 34.777 183.445 -4.88249C209.085 -44.5419 423.869 48.5021 662.932 202.732C901.994 356.963 1069.61 510.783 1037.14 546.017Z" fill="url(#paint2_linear_0_1)"/>
    <defs>
        <linearGradient id="paint0_linear_0_1" x1="192.226" y1="165.66" x2="619.125" y2="905.07" gradientUnits="userSpaceOnUse">
            <stop stop-color="#7E01FB"/>
            <stop offset="1" stop-color="#E5A6E7"/>
        </linearGradient>
        <linearGradient id="paint1_linear_0_1" x1="286.818" y1="22.9527" x2="726.856" y2="785.121" gradientUnits="userSpaceOnUse">
            <stop stop-color="#7E01FB"/>
            <stop offset="1" stop-color="#E5A6E7"/>
        </linearGradient>
        <linearGradient id="paint2_linear_0_1" x1="384.255" y1="-122.759" x2="837.446" y2="662.19" gradientUnits="userSpaceOnUse">
            <stop stop-color="#7E01FB"/>
            <stop offset="1" stop-color="#E5A6E7"/>
        </linearGradient>
    </defs>
</svg>
