<svg xmlns="http://www.w3.org/2000/svg" viewBox="0 0 320 456" fill="none">
<path d="M343.478 936.467C323.445 958.204 190.911 900.821 47.6753 808.387C-95.5606 715.953 -198.995 621.076 -183.178 596.609C-167.36 572.143 -34.8565 629.543 112.625 724.69C260.106 819.837 363.511 914.731 343.478 936.467Z" fill="url(#paint0_linear_15802_18758)"/>
<path d="M416.642 857.105C396.292 879.181 260.077 819.856 112.625 724.692C-34.856 629.545 -141.441 532.146 -125.32 507.386C-109.186 482.581 27.0292 541.906 178.696 639.8C330.393 737.676 437.008 835.059 416.642 857.105Z" fill="url(#paint1_linear_15802_18758)"/>
<path d="M490.722 776.741C470.17 799.012 330.343 737.664 178.676 639.77C26.9793 541.894 -82.9003 442.132 -66.564 417.131C-50.2277 392.131 89.5523 453.466 245.482 554.102C401.394 654.708 511.274 754.47 490.722 776.741Z" fill="url(#paint2_linear_15802_18758)"/>
<path d="M565.388 695.806C544.734 718.175 401.458 654.672 245.516 554.083C89.6031 453.477 -23.6426 351.434 -7.20503 326.335C9.23256 301.237 152.509 364.739 312.667 468.058C472.795 571.394 586.041 673.437 565.388 695.806Z" fill="url(#paint3_linear_15802_18758)"/>
<path d="M640.083 614.806C619.489 637.141 472.757 571.408 312.629 468.072C152.501 364.736 35.7882 260.509 52.1962 235.428C68.5747 210.364 215.276 276.113 379.65 382.162C544.04 488.24 660.707 592.454 640.083 614.806Z" fill="url(#paint4_linear_15802_18758)"/>
<path d="M714.505 534.132C694.054 556.305 544.045 488.24 379.655 382.162C215.265 276.084 95.03 169.784 111.265 144.88C127.5 119.977 277.508 188.042 446.115 296.85C614.721 405.657 734.956 511.958 714.505 534.132Z" fill="url(#paint5_linear_15802_18758)"/>
<defs>
<linearGradient id="paint0_linear_15802_18758" x1="-59.2949" y1="523.89" x2="220.285" y2="1008.14" gradientUnits="userSpaceOnUse">
<stop stop-color="#7E01FB"/>
<stop offset="1" stop-color="#E5A6E7"/>
</linearGradient>
<linearGradient id="paint1_linear_15802_18758" x1="2.17155" y1="432.592" x2="289.844" y2="930.856" gradientUnits="userSpaceOnUse">
<stop stop-color="#7E01FB"/>
<stop offset="1" stop-color="#E5A6E7"/>
</linearGradient>
<linearGradient id="paint2_linear_15802_18758" x1="64.5296" y1="340.277" x2="360.304" y2="852.574" gradientUnits="userSpaceOnUse">
<stop stop-color="#7E01FB"/>
<stop offset="1" stop-color="#E5A6E7"/>
</linearGradient>
<linearGradient id="paint3_linear_15802_18758" x1="127.497" y1="247.423" x2="431.353" y2="773.717" gradientUnits="userSpaceOnUse">
<stop stop-color="#7E01FB"/>
<stop offset="1" stop-color="#E5A6E7"/>
</linearGradient>
<linearGradient id="paint4_linear_15802_18758" x1="190.493" y1="154.47" x2="502.444" y2="694.784" gradientUnits="userSpaceOnUse">
<stop stop-color="#7E01FB"/>
<stop offset="1" stop-color="#E5A6E7"/>
</linearGradient>
<linearGradient id="paint5_linear_15802_18758" x1="253.186" y1="61.8681" x2="573.225" y2="616.192" gradientUnits="userSpaceOnUse">
<stop stop-color="#7E01FB"/>
<stop offset="1" stop-color="#E5A6E7"/>
</linearGradient>
</defs>
</svg>