<svg width="908" height="222" viewBox="0 0 908 222" fill="none" xmlns="http://www.w3.org/2000/svg">
<path d="M938.626 970.821C906.401 1005.81 695.557 914.977 467.928 768.112C240.299 621.247 75.9394 469.89 100.996 430.323C126.052 390.756 336.948 481.558 571.695 633.032C806.442 784.506 970.851 935.835 938.626 970.821Z" fill="url(#paint0_linear_22678_28124)"/>
<path d="M1056.9 842.352C1023.83 878.29 806.425 784.509 571.677 633.035C336.93 481.561 167.492 325.672 193.475 285.174C219.429 244.626 436.834 338.407 678.7 494.49C920.566 650.574 1090.05 806.434 1056.9 842.352Z" fill="url(#paint1_linear_22678_28124)"/>
<path d="M1178.2 710.765C1144.37 747.47 920.577 650.574 678.712 494.491C436.846 338.408 262.188 178.2 288.897 136.886C315.606 95.5726 539.35 192.498 788.384 353.161C1037.42 513.825 1212.03 674.061 1178.2 710.765Z" fill="url(#paint2_linear_22678_28124)"/>
<path d="M1301.74 576.755C1267.38 614.032 1037.37 513.856 788.384 353.164C539.35 192.5 359.372 28.0325 386.594 -13.7755C413.837 -55.6619 643.848 44.5139 899.951 209.816C1156.1 375.088 1336.13 539.527 1301.74 576.755Z" fill="url(#paint3_linear_22678_28124)"/>
<path d="M1426.83 441.05C1392.13 478.656 1156.02 375.065 899.915 209.763C643.762 44.4904 458.221 -123.965 485.806 -166.181C513.391 -208.397 749.422 -104.827 1012.72 65.1051C1275.99 234.987 1461.53 403.443 1426.83 441.05Z" fill="url(#paint4_linear_22678_28124)"/>
<path d="M1552.91 304.387C1518.03 342.158 1276.1 234.929 1012.78 65.0754C749.506 -104.807 558.281 -277.115 586.037 -319.496C613.793 -361.876 855.728 -254.647 1126.17 -80.1844C1396.56 94.3069 1587.78 266.615 1552.91 304.387Z" fill="url(#paint5_linear_22678_28124)"/>
<path d="M1679.05 167.614C1644.28 205.328 1396.51 94.3323 1126.12 -80.1592C855.73 -254.651 658.65 -430.646 686.357 -472.998C714.013 -515.321 961.731 -404.297 1239.29 -225.225C1516.88 -46.1038 1713.88 129.871 1679.05 167.614Z" fill="url(#paint6_linear_22678_28124)"/>
<path d="M1804.71 31.3876C1770.17 68.8296 1516.87 -46.1045 1239.28 -225.226C961.696 -404.347 758.669 -583.845 786.084 -625.896C813.498 -667.947 1066.8 -553.013 1351.51 -369.283C1636.21 -185.552 1839.24 -6.05422 1804.71 31.3876Z" fill="url(#paint7_linear_22678_28124)"/>
<defs>
<linearGradient id="paint0_linear_22678_28124" x1="298.048" y1="314.542" x2="742.753" y2="1084.8" gradientUnits="userSpaceOnUse">
<stop stop-color="#7E01FB"/>
<stop offset="1" stop-color="#E5A6E7"/>
</linearGradient>
<linearGradient id="paint1_linear_22678_28124" x1="396.582" y1="165.883" x2="854.975" y2="959.843" gradientUnits="userSpaceOnUse">
<stop stop-color="#7E01FB"/>
<stop offset="1" stop-color="#E5A6E7"/>
</linearGradient>
<linearGradient id="paint2_linear_22678_28124" x1="498.083" y1="14.0928" x2="970.178" y2="831.784" gradientUnits="userSpaceOnUse">
<stop stop-color="#7E01FB"/>
<stop offset="1" stop-color="#E5A6E7"/>
</linearGradient>
<linearGradient id="paint3_linear_22678_28124" x1="601.874" y1="-140.072" x2="1087.63" y2="701.289" gradientUnits="userSpaceOnUse">
<stop stop-color="#7E01FB"/>
<stop offset="1" stop-color="#E5A6E7"/>
</linearGradient>
<linearGradient id="paint4_linear_22678_28124" x1="707.169" y1="-295.956" x2="1206.61" y2="569.101" gradientUnits="userSpaceOnUse">
<stop stop-color="#7E01FB"/>
<stop offset="1" stop-color="#E5A6E7"/>
</linearGradient>
<linearGradient id="paint5_linear_22678_28124" x1="813.493" y1="-452.745" x2="1326.58" y2="435.947" gradientUnits="userSpaceOnUse">
<stop stop-color="#7E01FB"/>
<stop offset="1" stop-color="#E5A6E7"/>
</linearGradient>
<linearGradient id="paint6_linear_22678_28124" x1="919.883" y1="-609.703" x2="1446.64" y2="302.664" gradientUnits="userSpaceOnUse">
<stop stop-color="#7E01FB"/>
<stop offset="1" stop-color="#E5A6E7"/>
</linearGradient>
<linearGradient id="paint7_linear_22678_28124" x1="1025.73" y1="-766.07" x2="1566.14" y2="169.953" gradientUnits="userSpaceOnUse">
<stop stop-color="#7E01FB"/>
<stop offset="1" stop-color="#E5A6E7"/>
</linearGradient>
</defs>
</svg>
