<svg width="52" height="52" viewBox="0 0 256 257" fill="none" xmlns="http://www.w3.org/2000/svg">
<rect width="256" height="256" transform="translate(0 0.5)" fill="url(#paint0_linear_10478_28259)"/>
<path d="M82.0434 186.31L82.0674 186.318L73.3144 201.478C70.1194 207.012 63.0434 208.908 57.5094 205.713C51.9754 202.518 50.0794 195.442 53.2744 189.908L59.7224 178.74L60.3414 177.668C61.4464 176.08 64.1734 173.338 69.6284 173.854C69.6284 173.854 82.4654 175.247 83.3944 181.919C83.3944 181.919 83.5204 184.114 82.0434 186.31ZM206.186 147.59H178.892C177.033 147.465 176.222 146.801 175.902 146.415L175.882 146.38L146.665 95.7742L146.627 95.7992L144.875 93.2872C142.003 88.8952 137.443 100.127 137.443 100.127C131.998 112.643 138.216 126.872 140.383 131.173L180.965 201.463C184.159 206.996 191.235 208.893 196.77 205.697C202.303 202.502 204.2 195.426 201.004 189.892L190.857 172.316C190.66 171.89 190.318 170.734 192.399 170.729H206.186C212.576 170.729 217.756 165.549 217.756 159.159C217.756 152.769 212.576 147.59 206.186 147.59ZM153.172 163.317C153.172 163.317 154.629 170.728 148.992 170.728H48.0934C41.7034 170.728 36.5234 165.548 36.5234 159.158C36.5234 152.768 41.7034 147.588 48.0934 147.588H74.0334C78.2214 147.346 79.2134 144.928 79.2134 144.928L79.2374 144.94L113.097 86.2922L113.087 86.2902C113.704 85.1572 113.19 84.0862 113.101 83.9172L101.918 64.5482C98.7234 59.0152 100.619 51.9382 106.153 48.7442C111.687 45.5502 118.763 47.4442 121.958 52.9782L127.144 61.9612L132.321 52.9942C135.516 47.4612 142.592 45.5642 148.126 48.7602C153.66 51.9562 155.556 59.0302 152.361 64.5642L105.243 146.174C105.037 146.671 104.974 147.451 106.507 147.588H134.671L134.677 147.863C134.677 147.863 150.955 148.116 153.172 163.317Z" fill="white"/>
<defs>
<linearGradient id="paint0_linear_10478_28259" x1="128" y1="0" x2="128" y2="256" gradientUnits="userSpaceOnUse">
<stop stop-color="#5EC5F8"/>
<stop offset="1" stop-color="#3569E3"/>
</linearGradient>
</defs>
</svg>
