<svg  viewBox="0 0 52 52" fill="none" xmlns="http://www.w3.org/2000/svg">
<g id="Group 2087327799">
<rect id="Rectangle 240648277" width="52" height="52" rx="12" fill="url(#paint0_linear_9045_13109)"/>
<g id="Group 2087327795">
<path id="path14" fill-rule="evenodd" clipRule="evenodd" d="M23.1446 33.9724H25.2323L24.1849 31.5366L23.1446 33.9724ZM22.6306 35.1999L22.0112 36.6171H20.6011L23.5998 29.8139H24.8185L27.8051 36.6171H26.3573L25.7459 35.1999H22.6306ZM45.3218 36.6121H46.6847V29.8135H45.3218V36.6121ZM39.8973 33.6915H42.4096V32.4519H39.8973V31.0585H43.5443V29.8185H38.5349V36.6167H43.6755V35.3767H39.8973V33.6915ZM34.4821 34.4948L32.937 29.8135H31.8094L30.2642 34.4948L28.7605 29.8172H27.2902L29.6632 36.6209H30.8063L32.3539 32.1518L33.9016 36.6209H35.0547L37.4215 29.8172H35.9892L34.4821 34.4948ZM18.5206 33.7103C18.5206 34.817 17.971 35.4084 16.9729 35.4084C15.9695 35.4084 15.4169 34.7999 15.4169 33.6631V29.8181H14.0356V33.7103C14.0356 35.6249 15.0997 36.7229 16.9541 36.7229C18.8269 36.7229 19.9006 35.604 19.9006 33.6535V29.8139H18.5206V33.7103ZM10.7402 29.8139H12.1206V36.6213H10.7402V33.8566H7.62153V36.6213H6.24023V29.8139H7.62153V32.5598H10.7402V29.8139Z" fill="white"/>
<path id="Fill-3" fill-rule="evenodd" clipRule="evenodd" d="M26.4616 21.1471C21.6823 21.1471 17.7949 17.2593 17.7949 12.4805H19.0191C19.0191 16.5839 22.3581 19.9225 26.4616 19.9225C30.565 19.9225 33.9041 16.5839 33.9041 12.4805H35.1283C35.1283 17.2593 31.2405 21.1471 26.4616 21.1471Z" fill="white"/>
</g>
</g>
<defs>
<linearGradient id="paint0_linear_9045_13109" x1="26" y1="0" x2="26" y2="52" gradientUnits="userSpaceOnUse">
<stop stop-color="#FC6361"/>
<stop offset="1" stop-color="#ED3E45"/>
</linearGradient>
</defs>
</svg>
