<svg  viewBox="0 0 52 52" fill="none" xmlns="http://www.w3.org/2000/svg">
<g id="Group 2087327797">
<rect id="Rectangle 240648275" width="52" height="52" rx="12" fill="#1B1B1B"/>
<g id="Group 2087327796">
<path id="Vector" d="M26.8392 25.0312L16.7305 35.6221C16.844 36.0244 17.048 36.3954 17.3268 36.7068C17.6057 37.0182 17.9521 37.2617 18.3395 37.4187C18.7269 37.5757 19.1451 37.642 19.5621 37.6126C19.979 37.5832 20.3838 37.4589 20.7453 37.2491L32.1196 30.7711L26.8392 25.0312Z" fill="#EA4335"/>
<path id="Vector_2" d="M37.0607 23.2303L32.1419 20.4131L26.6055 25.2716L32.1645 30.7553L37.0456 27.9683C37.4781 27.7419 37.8403 27.4014 38.093 26.9838C38.3457 26.5662 38.4794 26.0874 38.4794 25.5993C38.4794 25.1112 38.3457 24.6323 38.093 24.2147C37.8403 23.7971 37.4781 23.4567 37.0456 23.2303H37.0607Z" fill="#FBBC04"/>
<path id="Vector_3" d="M16.7301 15.5239C16.669 15.7498 16.6386 15.9829 16.6397 16.2169V34.9279C16.6403 35.1618 16.6707 35.3947 16.7301 35.6209L27.1853 25.3012L16.7301 15.5239Z" fill="#4285F4"/>
<path id="Vector_4" d="M26.9145 25.5717L32.1422 20.4119L20.783 13.9037C20.3557 13.6534 19.8696 13.5209 19.3744 13.5195C18.7763 13.5184 18.1942 13.7128 17.7169 14.0732C17.2395 14.4335 16.8931 14.9401 16.7305 15.5157L26.9145 25.5717Z" fill="#34A853"/>
</g>
</g>
</svg>
